<?xml version="1.0" encoding="utf-8"?>
<!-- Generator: Adobe Illustrator 27.5.0, SVG Export Plug-In . SVG Version: 6.00 Build 0)  -->
<svg version="1.1" xmlns="http://www.w3.org/2000/svg" xmlns:xlink="http://www.w3.org/1999/xlink" x="0px" y="0px"
	 viewBox="0 0 3710 3710" style="enable-background:new 0 0 3710 3710;" xml:space="preserve">
<g id="Background">
	<g>
		<g>
			<rect style="fill:#FFFFFF;" width="3710" height="3710"/>
		</g>
	</g>
</g>
<g id="Illustration">
	<g>
		<path style="fill:#F4F7FA;" d="M1067.052,520.315c-96.985,140.326,16.732,367.828-127.176,473.365
			c-140.084,102.732-312.173-65.659-444.193,22.772c-195.844,131.182-160.08,731.449,126.255,1104.406
			c86.111,112.161,158.061,155.801,189.928,282.65c68.427,272.377-172.06,434.404-126.295,569.117
			c103.045,303.324,1687.792,557.849,2323.663-353.741c296.978-425.751,341.412-1040.538,76.072-1507.473
			C2605.84,267.667,1284.669,205.449,1067.052,520.315z"/>
		<g>
			<g>
				<g>
					<g>
						<g>
							<defs>
								<path id="SVGID_1_" d="M1104.533,2014.825c-10.484,36.192-31.955,87.261-54.331,145.812l614.999-72.318
									c-114.363-162.633-258.281-327.072-202.403-677.391c26.223-164.398,131.203-469.148,13.628-622.308
									c-133.95-174.493-272.692-46.672-354.194-187.692C994.846,380.517,748.587,269.266,562.913,445.266
									c-183.252,173.705-62.446,597.409,344.274,987.637C1167.26,1745.908,1159.282,1825.84,1104.533,2014.825z"/>
							</defs>
							
								<linearGradient id="SVGID_00000030468935549000048560000007924560395028576917_" gradientUnits="userSpaceOnUse" x1="1863.3925" y1="2510.4614" x2="94.8753" y2="-547.5955">
								<stop  offset="0" style="stop-color:#AA80F9"/>
								<stop  offset="0.9964" style="stop-color:#6165D7"/>
							</linearGradient>
							
								<use xlink:href="#SVGID_1_"  style="overflow:visible;fill:url(#SVGID_00000030468935549000048560000007924560395028576917_);"/>
							<clipPath id="SVGID_00000160897587506747364300000014142068405770814867_">
								<use xlink:href="#SVGID_1_"  style="overflow:visible;"/>
							</clipPath>
							<g style="clip-path:url(#SVGID_00000160897587506747364300000014142068405770814867_);">
								<g>
									<path style="fill:#FCFDFE;" d="M1363.959,2087.616c-16.481-78.904-36.026-152.49-56.72-230.397l-6.895-25.976
										c-12.276-36.901-23.378-73.617-34.115-109.126c-24.243-80.178-47.143-155.911-82.484-233.367
										c-1.529-4.667-2.782-9.261-4.106-14.129c-4.735-17.379-9.634-35.348-24.327-49.857l-0.423-0.653
										C999.685,1005.984,755.631,612.868,429.505,255.69l2.654-2.422c326.337,357.412,570.589,750.801,725.961,1169.223
										c15.164,15.144,20.378,34.286,24.982,51.187c1.315,4.823,2.556,9.379,3.986,13.772
										c35.366,77.486,58.299,153.332,82.579,233.63c10.729,35.484,21.825,72.177,34.118,109.137l6.924,26.082
										c20.707,77.954,40.264,151.585,56.765,230.584L1363.959,2087.616z"/>
									<path style="fill:#FCFDFE;" d="M1258.429,1708.274c-57.957-201.863-15.278-471.419,30.731-662.004
										c49.825-206.394,114.174-367.201,114.819-368.8l3.332,1.34c-0.643,1.599-64.91,162.204-114.673,368.352
										c-45.9,190.149-88.494,459.024-30.757,660.122L1258.429,1708.274z"/>
									<path style="fill:#FCFDFE;" d="M886.813,862.931c-73.437-210.78-101.696-448.996-110.981-527.275
										c-1.777-14.973-2.951-24.865-3.507-26.699l3.437-1.043c0.623,2.053,1.563,9.858,3.635,27.321
										c9.275,78.183,37.499,316.105,110.807,526.514L886.813,862.931z"/>
									<path style="fill:#FCFDFE;" d="M1055.965,1186.174c-122.03-165.907-545.289-228.909-549.549-229.526l0.514-3.554
										c4.275,0.618,429.018,63.849,551.929,230.954L1055.965,1186.174z"/>
								</g>
							</g>
						</g>
					</g>
					<g>
						<g>
							<defs>
								<path id="SVGID_00000093178581107655172430000002418158661846256051_" d="M918.104,1340.758
									c36.537,282.157,161.869,173.031,290.81,186.139c169.705,192.785,206.261,385.864,9.494,579.46l-245.524-7.735
									c-90.013,6.372-198.276-8.637-206.367-128.541c-9.15-135.609,12.664-224.987-147.296-273.303
									c-159.958-48.317-239.535-161.443-194.072-306.109c47.843-152.238-127.184-329.284-27.417-439.248
									C571.572,759.816,880.057,1046.948,918.104,1340.758z"/>
							</defs>
							
								<linearGradient id="SVGID_00000070828271049118999310000000904576753206484918_" gradientUnits="userSpaceOnUse" x1="548.3944" y1="1082.531" x2="1472.1864" y2="2603.3306">
								<stop  offset="0.0036" style="stop-color:#E38DDD"/>
								<stop  offset="1" style="stop-color:#9571F6"/>
							</linearGradient>
							
								<use xlink:href="#SVGID_00000093178581107655172430000002418158661846256051_"  style="overflow:visible;fill:url(#SVGID_00000070828271049118999310000000904576753206484918_);"/>
							<clipPath id="SVGID_00000080905000276468462310000010425947251264105876_">
								<use xlink:href="#SVGID_00000093178581107655172430000002418158661846256051_"  style="overflow:visible;"/>
							</clipPath>
							<g style="clip-path:url(#SVGID_00000080905000276468462310000010425947251264105876_);">
								<g>
									<path style="fill:#FCFDFE;" d="M1037.463,1839.352c-113.694-98.36-215.372-210.561-302.212-333.488
										c-87.586-123.988-158.904-257.241-211.967-396.064c-30.428-79.602-54.927-161.468-72.815-243.323l3.589-0.782
										c17.852,81.672,42.296,163.36,72.66,242.794c52.953,138.534,124.124,271.516,211.536,395.254
										c86.667,122.684,188.146,234.665,301.613,332.829L1037.463,1839.352z"/>
									<path style="fill:#FCFDFE;" d="M796.019,2025.075l-2.039-3.058c42.128-28.097,92.896-52.115,150.894-71.387
										c27.637-9.184,55.32-16.355,82.281-21.315l0.667,3.615c-26.795,4.927-54.313,12.056-81.787,21.189
										C888.344,1973.286,837.873,1997.159,796.019,2025.075z"/>
									<path style="fill:#FCFDFE;" d="M791.702,1580.958c-138.763-105.87-402.683-63.669-405.324-63.214l-0.6-3.627
										c2.674-0.433,268.124-42.921,408.155,63.92L791.702,1580.958z"/>
									<path style="fill:#FCFDFE;" d="M601.083,1284.482c-59.902-187.887,58.073-427.022,59.271-429.415l3.285,1.645
										c-1.191,2.381-118.497,240.204-59.053,426.654L601.083,1284.482z"/>
								</g>
							</g>
						</g>
					</g>
				</g>
			</g>
		</g>
		<g>
			
				<linearGradient id="SVGID_00000039135212969025152500000018355340474335836565_" gradientUnits="userSpaceOnUse" x1="1641.0521" y1="3002.1628" x2="1442.0488" y2="3085.7441">
				<stop  offset="0" style="stop-color:#40447E"/>
				<stop  offset="0.9964" style="stop-color:#3C3B6B"/>
			</linearGradient>
			<path style="fill:url(#SVGID_00000039135212969025152500000018355340474335836565_);" d="M3278.71,2896.555l-2836.816-21.11
				v62.459c0,16.953,12.373,31.368,29.13,33.937l802.167,122.994c9.52,1.46,19.174,1.847,28.78,1.155l1945.911-140.234
				c17.373-1.251,30.828-15.711,30.828-33.129V2896.555z"/>
			<g>
				
					<linearGradient id="SVGID_00000034775169615928631410000000832507934574704310_" gradientUnits="userSpaceOnUse" x1="1320.0232" y1="2239.7991" x2="1121.0214" y2="2323.3799">
					<stop  offset="0" style="stop-color:#40447E"/>
					<stop  offset="0.9964" style="stop-color:#3C3B6B"/>
				</linearGradient>
				<path style="fill:url(#SVGID_00000034775169615928631410000000832507934574704310_);" d="M2249.241,2795.304L471.229,2909.567
					c-31.816,2.044-57.685-19.682-57.685-48.532V1705.167c0-28.851,25.869-52.239,57.685-52.239h1778.012
					c26.211,0,47.405,21.142,47.405,47.223v1044.883C2296.646,2771.115,2275.452,2793.62,2249.241,2795.304z"/>
				
					<linearGradient id="SVGID_00000006670166553897295260000006372320666310022286_" gradientUnits="userSpaceOnUse" x1="441.8942" y1="2281.3142" x2="2324.9963" y2="2281.3142">
					<stop  offset="0" style="stop-color:#40447E"/>
					<stop  offset="0.9964" style="stop-color:#3C3B6B"/>
				</linearGradient>
				<path style="fill:url(#SVGID_00000006670166553897295260000006372320666310022286_);" d="M2277.591,2795.304L499.58,2909.567
					c-31.817,2.044-57.686-19.682-57.686-48.532V1705.167c0-28.851,25.869-52.239,57.686-52.239h1778.011
					c26.213,0,47.405,21.142,47.405,47.223v1044.883C2324.996,2771.115,2303.804,2793.62,2277.591,2795.304z"/>
				
					<linearGradient id="SVGID_00000047743487071044679980000012002253527822800525_" gradientUnits="userSpaceOnUse" x1="1620.7341" y1="1848.1021" x2="247.479" y2="4093.0769">
					<stop  offset="0" style="stop-color:#FFC444"/>
					<stop  offset="0.9964" style="stop-color:#F36F56"/>
				</linearGradient>
				<path style="fill:url(#SVGID_00000047743487071044679980000012002253527822800525_);" d="M2222.201,2721.638l-1656.032,99.252
					c-25.891,1.551-46.932-16.28-46.932-39.833V1769.093c0-23.552,21.04-42.725,46.932-42.823l1656.032-6.232
					c21.623-0.082,39.114,17.243,39.114,38.696v921.718C2261.315,2701.904,2243.824,2720.343,2222.201,2721.638z"/>
				<path style="fill:#FFFFFF;" d="M1451.38,1684.544c0,10.74-9.151,19.471-20.452,19.503c-11.315,0.032-20.497-8.669-20.497-19.433
					c0-10.764,9.182-19.496,20.497-19.504C1442.229,1665.102,1451.38,1673.803,1451.38,1684.544z"/>
				<path style="opacity:0.48;fill:#FFFFFF;" d="M1849.207,2478.29c-137.069-67.066-244.845,17.914-348.857-65.931
					c-63.059-50.833-32.1-88.74-109.693-164.703c-85.939-84.136-141.891-55.854-228.259-131.577
					c-109.207-95.747-54.588-170.24-148.656-238.983c-114.118-83.396-237.187-6.208-345.82-86.187
					c-46.854-34.495-72.561-84.645-85.986-137.98H475.646c-18.626,0-33.751,13.728-33.751,30.663v1198.157
					c0,16.935,15.125,29.687,33.751,28.484l1812.085-116.968c8.893-0.574,16.778-5.295,21.839-12.14
					c-132.65-4.397-214.143-44.834-266.236-86.639C1941.426,2612.705,1959.101,2532.058,1849.207,2478.29z"/>
			</g>
			
				<linearGradient id="SVGID_00000019660612247223779010000014132427635463863737_" gradientUnits="userSpaceOnUse" x1="441.8942" y1="2914.5652" x2="3278.7104" y2="2914.5652">
				<stop  offset="0" style="stop-color:#40447E"/>
				<stop  offset="0.9964" style="stop-color:#3C3B6B"/>
			</linearGradient>
			<path style="fill:url(#SVGID_00000019660612247223779010000014132427635463863737_);" d="M2348.458,2790.122L441.894,2910.395
				l831.297,127.46c9.52,1.46,19.174,1.847,28.78,1.155l1976.739-142.455l-899.925-105.615
				C2368.722,2789.758,2358.571,2789.485,2348.458,2790.122z"/>
			
				<linearGradient id="SVGID_00000118363446281053942160000007746309832854416016_" gradientUnits="userSpaceOnUse" x1="720.0916" y1="2894.7061" x2="2798.6089" y2="2894.7061">
				<stop  offset="0" style="stop-color:#40447E"/>
				<stop  offset="0.9964" style="stop-color:#3C3B6B"/>
			</linearGradient>
			<polygon style="opacity:0.3;fill:url(#SVGID_00000118363446281053942160000007746309832854416016_);" points="720.092,2913.419 
				2307.363,2811.797 2798.609,2868.985 1225.011,2977.615 			"/>
		</g>
		<g>
			<path style="fill:#BFC6D1;" d="M3088.462,1218.879c52.03,4.381,98.056-37.738,102.8-94.076
				c4.746-56.338-33.586-105.562-85.617-109.944c-2.696-0.227-5.365-0.254-8.023-0.237c-2.481-29.099-7.018-57.6-13.548-85.303
				c2.47-1.011,4.935-2.06,7.364-3.309c47.433-24.374,68.126-85.46,46.219-136.443c-21.906-50.983-78.115-72.553-125.548-48.18
				c-2.479,1.276-4.84,2.707-7.171,4.175c-15.487-23.384-32.635-45.406-51.302-65.88c1.725-2.244,3.422-4.527,4.997-6.963
				c30.124-46.597,19.94-110.287-22.746-142.252c-42.687-31.964-101.713-20.1-131.838,26.497c-1.543,2.39-2.91,4.846-4.243,7.318
				c-24.098-11.63-49.256-21.261-75.305-28.795c0.463-2.837,0.886-5.695,1.131-8.612c4.745-56.339,15.013-119.945-37.081-123.511
				c-120.506-8.252-146.593,51.303-151.339,107.641c-0.246,2.918-0.307,5.805-0.325,8.68c-26.942,3.072-53.356,8.358-79.061,15.793
				c-0.9-2.659-1.837-5.31-2.959-7.923c-21.905-50.98-17.951-84.99-67.74-65.888c-108.575,41.657-125.932,103.174-104.027,154.155
				c1.144,2.664,2.436,5.2,3.763,7.7c-21.828,17.062-42.42,35.906-61.599,56.372c-2.053-1.837-4.141-3.643-6.373-5.315
				c-42.686-31.964-101.713-20.1-131.837,26.502c-30.124,46.6-19.941,110.286,22.746,142.249c2.187,1.639,4.441,3.085,6.707,4.495
				c-11.073,26.221-20.312,53.561-27.626,81.836c-2.617-0.461-5.253-0.881-7.949-1.108c-52.03-4.382-98.056,37.736-102.802,94.075
				c-4.745,56.338,33.588,105.562,85.618,109.944c2.695,0.228,5.364,0.255,8.022,0.238c2.482,29.099,7.018,57.6,13.55,85.303
				c-2.471,1.011-4.935,2.06-7.365,3.307c-47.432,24.376-68.125,85.463-46.22,136.445c21.907,50.984,78.116,72.55,125.548,48.177
				c2.479-1.273,4.843-2.704,7.172-4.172c15.485,23.387,32.635,45.408,51.302,65.881c-1.726,2.245-3.422,4.527-4.997,6.963
				c-30.124,46.598-19.94,110.286,22.747,142.252c42.687,31.964,135.093,17.34,165.217-29.257c1.544-2.39-30.468-2.086-29.136-4.558
				c24.097,11.63,49.256,21.26,75.305,28.795c-0.463,2.837-0.886,5.695-1.132,8.612c-4.746,56.338,33.587,105.562,85.617,109.945
				c52.03,4.382,98.056-37.738,102.802-94.076c0.245-2.918,0.306-5.806,0.324-8.681c26.942-3.071,53.358-8.357,79.059-15.792
				c0.901,2.66,1.839,5.31,2.96,7.924c21.906,50.979,78.116,72.549,125.548,48.176c47.433-24.374,68.126-85.464,46.219-136.443
				c-1.145-2.665-2.436-5.2-3.761-7.701c21.828-17.062,42.419-35.906,61.599-56.372c2.052,1.837,4.143,3.643,6.372,5.313
				c42.687,31.964,101.713,20.103,131.838-26.498c30.125-46.601,19.94-110.287-22.746-142.255c-2.186-1.634-4.44-3.081-6.706-4.49
				c11.072-26.221,20.312-53.561,27.625-81.836C3083.131,1218.231,3085.765,1218.651,3088.462,1218.879z M2553.502,1444.089
				c-188.911-15.911-328.087-194.63-310.859-399.183c17.228-204.553,184.337-357.475,373.248-341.564
				c188.913,15.911,328.089,194.63,310.86,399.184C2909.522,1307.078,2742.415,1460,2553.502,1444.089z"/>
			<path style="fill:#BFC6D1;" d="M3091.438,926.009c47.432-24.376,68.125-85.462,46.22-136.445
				c-21.907-50.982-78.116-72.553-125.548-48.177c-2.48,1.274-4.841,2.707-7.172,4.173c-15.485-23.386-32.635-45.406-51.302-65.88
				c1.726-2.243,3.422-4.528,4.996-6.964c30.124-46.597,53.269-139.03,7.529-166.447c-86.813-52.034-131.988,4.098-162.112,50.694
				c-1.543,2.39-2.911,4.844-4.244,7.316c-24.097-11.629-49.255-21.258-75.305-28.793c0.465-2.838,0.887-5.694,1.133-8.612
				c2.583-30.662-7.66-59.151-25.861-79.516c-11.598,88.095-22.527,176.268-32.578,264.541
				c162.128,40.813,275.183,205.085,259.557,390.625c-13.242,157.228-115.071,283.849-247.25,326.847
				c0.304,17.187,0.747,34.413,0.587,51.623c-0.431,46.7-3.46,93.499-6.536,140.255c12.824-2.591,25.505-5.681,38.014-9.3
				c0.9,2.661,1.838,5.312,2.96,7.924c21.906,50.982,70.849,81.978,158.12,41.023c48.277-22.656,35.553-78.308,13.646-129.29
				c-1.144-2.663-2.436-5.2-3.761-7.7c21.828-17.063,42.419-35.907,61.598-56.372c2.053,1.837,4.144,3.643,6.373,5.313
				c42.688,31.965,138.451,14.019,168.575-32.581c30.125-46.6-16.797-104.204-59.483-136.171c-2.187-1.637-4.441-3.084-6.707-4.494
				c11.073-26.219,20.312-53.561,27.625-81.834c2.62,0.462,5.254,0.883,7.949,1.107c52.031,4.385,98.057-37.738,102.802-94.076
				c4.745-56.336-33.588-105.563-85.618-109.943c-2.696-0.227-5.365-0.255-8.023-0.237c-2.481-29.099-7.018-57.602-13.548-85.302
				C3086.544,928.307,3089.008,927.257,3091.438,926.009z"/>
			<path style="fill:#D8DEE8;" d="M3136.999,1205.311c52.03,4.383,98.056-37.736,102.802-94.074
				c4.745-56.339-33.589-105.564-85.619-109.945c-2.695-0.228-5.363-0.255-8.021-0.237c-2.482-29.1-7.018-57.602-13.549-85.305
				c2.47-1.011,4.935-2.06,7.364-3.309c47.432-24.374,68.126-85.46,46.22-136.443c-21.906-50.982-78.115-72.553-125.548-48.179
				c-2.479,1.276-4.841,2.707-7.171,4.175c-15.486-23.386-32.636-45.408-51.302-65.881c1.725-2.243,3.423-4.527,4.997-6.963
				c30.124-46.597,19.941-110.286-22.746-142.25c-42.687-31.966-101.713-20.1-131.837,26.497c-1.543,2.389-2.91,4.846-4.243,7.317
				c-24.098-11.63-49.256-21.259-75.305-28.793c0.462-2.839,0.886-5.695,1.132-8.614c4.745-56.338-33.588-105.563-85.619-109.944
				c-52.031-4.382-98.055,37.736-102.801,94.074c-0.245,2.919-0.306,5.806-0.326,8.682c-26.942,3.071-53.356,8.357-79.059,15.792
				c-0.902-2.66-1.838-5.311-2.959-7.923c-21.906-50.981-78.116-72.552-125.549-48.177c-47.431,24.374-68.125,85.463-46.22,136.443
				c1.146,2.665,2.436,5.2,3.763,7.7c-21.829,17.064-42.419,35.907-61.599,56.372c-2.052-1.836-4.142-3.642-6.373-5.316
				c-42.687-31.964-101.712-20.099-131.837,26.502c-30.125,46.601-19.94,110.286,22.746,142.252
				c2.187,1.637,4.442,3.084,6.708,4.494c-11.073,26.22-20.312,53.561-27.627,81.836c-2.617-0.462-5.253-0.881-7.948-1.107
				c-52.031-4.383-98.057,37.736-102.802,94.074c-4.744,56.339,33.587,105.562,85.618,109.945c2.695,0.227,5.364,0.255,8.022,0.237
				c2.483,29.1,7.018,57.601,13.548,85.303c-2.469,1.011-4.933,2.061-7.363,3.307c-47.433,24.377-68.125,85.462-46.219,136.446
				c21.906,50.982,78.117,72.55,125.548,48.176c2.478-1.274,4.841-2.704,7.172-4.172c15.485,23.385,32.634,45.406,51.301,65.881
				c-1.726,2.243-3.423,4.528-4.997,6.964c-30.124,46.597-19.94,110.286,22.747,142.25c42.688,31.965,101.712,20.1,131.837-26.497
				c1.544-2.389,2.91-4.846,4.244-7.317c24.096,11.63,49.256,21.259,75.304,28.794c-0.463,2.838-0.886,5.694-1.132,8.614
				c-4.744,56.338,33.588,105.562,85.619,109.944c52.03,4.381,98.057-37.736,102.801-94.075c0.247-2.918,0.307-5.805,0.325-8.681
				c26.942-3.071,53.357-8.356,79.06-15.792c0.901,2.66,1.839,5.31,2.959,7.923c21.907,50.981,78.117,72.55,125.548,48.176
				c47.433-24.373,68.126-85.462,46.22-136.441c-1.145-2.666-2.436-5.2-3.761-7.702c21.829-17.063,42.419-35.906,61.598-56.371
				c2.052,1.836,4.142,3.642,6.373,5.312c42.687,31.965,101.713,20.103,131.837-26.498c30.125-46.601,19.941-110.288-22.746-142.255
				c-2.187-1.634-4.44-3.081-6.708-4.492c11.073-26.22,20.312-53.561,27.626-81.835
				C3131.669,1204.665,3134.303,1205.084,3136.999,1205.311z M2602.04,1430.523c-188.911-15.911-328.087-194.63-310.859-399.183
				c17.228-204.553,184.337-357.475,373.248-341.565c188.91,15.911,328.088,194.63,310.859,399.183
				C2958.06,1293.511,2790.952,1446.433,2602.04,1430.523z"/>
		</g>
		<g>
			<g>
				<path style="fill:#FFFFFF;" d="M2210.884,993.492v482.026c0,16.003,10.933,28.708,24.401,28.379l796.311-19.493
					c12.254-0.3,22.176-12.893,22.176-28.129V997.377L2210.884,993.492z"/>
				
					<linearGradient id="SVGID_00000057829903460823921590000016066736196377273769_" gradientUnits="userSpaceOnUse" x1="2701.3604" y1="869.9616" x2="2329.6487" y2="1477.6296">
					<stop  offset="0" style="stop-color:#FFC444"/>
					<stop  offset="0.9964" style="stop-color:#F36F56"/>
				</linearGradient>
				<path style="fill:url(#SVGID_00000057829903460823921590000016066736196377273769_);" d="M3031.596,938.941l-796.311-6.443
					c-13.468-0.109-24.401,12.775-24.401,28.779v49.392l842.888,3.06v-47.022C3053.771,951.471,3043.85,939.041,3031.596,938.941z"
					/>
				<g>
					<g>
						<g>
							
								<linearGradient id="SVGID_00000097489029737692361880000002586592867564199102_" gradientUnits="userSpaceOnUse" x1="-7860.8516" y1="1073.9902" x2="-7684.7949" y2="1696.4756" gradientTransform="matrix(-1 0.0013 0.0013 1 -5324.9741 3.598)">
								<stop  offset="0" style="stop-color:#FFC444"/>
								<stop  offset="0.9964" style="stop-color:#F36F56"/>
							</linearGradient>
							<path style="fill:url(#SVGID_00000097489029737692361880000002586592867564199102_);" d="M2409.79,1247.978l44.515-186.612
								c67.097,26.022,115.41,101.271,115.77,190.275L2409.79,1247.978z"/>
						</g>
						<g>
							<path style="fill:#F4F7FA;" d="M2528.808,1263.781c-2.481,42.444-19.404,80.313-44.937,106.46l-69.778-109.174
								L2528.808,1263.781z"/>
							<path style="fill:#F4F7FA;" d="M2399.819,1241.695c-27.035-30.772-59.713-68.047-85.742-97.876
								c23.089-26.324,54.243-42.475,88.411-42.528c10.344-0.016,20.389,1.446,29.996,4.215L2399.819,1241.695z"/>
							<path style="fill:#F4F7FA;" d="M2394.184,1253.439l-98.332,87.565c-13.807-24.296-21.875-53.69-21.875-85.44
								c0-39.155,12.264-74.972,32.429-102.225c7.217,8.262,15.237,17.429,24.02,27.458
								C2357.001,1211.137,2383.654,1241.463,2394.184,1253.439z"/>
							<path style="fill:#F4F7FA;" d="M2397.024,1267.182l-1.895,139.886c-37.353-1.831-70.552-22.987-92.723-55.54
								L2397.024,1267.182z"/>
							<path style="fill:#F4F7FA;" d="M2407.88,1272.976l67.387,105.349c-19.645,16.907-43.433,27.381-69.203,28.724
								L2407.88,1272.976z"/>
						</g>
					</g>
					<polygon style="fill:#D8DEE8;" points="2996.182,1146.636 2592.629,1148.371 2592.629,1101.322 2996.182,1100.691 					"/>
					<polygon style="fill:#D8DEE8;" points="2996.182,1229.773 2592.629,1233.509 2592.629,1186.459 2996.182,1183.829 					"/>
					<polygon style="fill:#D8DEE8;" points="2996.182,1312.911 2592.629,1318.645 2592.629,1271.596 2996.182,1266.967 					"/>
					<polygon style="fill:#D8DEE8;" points="2996.182,1396.049 2592.629,1403.782 2592.629,1356.733 2996.182,1350.104 					"/>
				</g>
				<path style="fill:#FFFFFF;" d="M2266.848,971.278c0,7.092-4.834,12.817-10.801,12.786c-5.971-0.031-10.814-5.812-10.814-12.913
					c0-7.101,4.844-12.825,10.814-12.786C2262.014,958.404,2266.848,964.186,2266.848,971.278z"/>
			</g>
			<g>
				<path style="fill:#FFFFFF;" d="M1373.486,2038.849v584.25c0,19.397,13.54,34.309,30.217,33.308l979.855-58.783
					c14.985-0.899,27.114-16.498,27.114-34.844v-552.59L1373.486,2038.849z"/>
				
					<linearGradient id="SVGID_00000063623761353358160250000017116581884820116376_" gradientUnits="userSpaceOnUse" x1="1980.4286" y1="1864.735" x2="1502.8984" y2="2645.3933">
					<stop  offset="0" style="stop-color:#AA80F9"/>
					<stop  offset="0.9964" style="stop-color:#6165D7"/>
				</linearGradient>
				<path style="fill:url(#SVGID_00000063623761353358160250000017116581884820116376_);" d="M2383.558,1940.684l-979.855,23.278
					c-16.677,0.396-30.217,16.441-30.217,35.839v59.866l1037.185-29.787v-56.623
					C2410.671,1954.912,2398.542,1940.328,2383.558,1940.684z"/>
				<polygon style="fill:#F4F7FA;" points="2305.243,2502.056 1489.947,2546.477 1489.947,2148.146 2305.243,2120.796 				"/>
				
					<linearGradient id="SVGID_00000155133290879408457430000004523605587624240813_" gradientUnits="userSpaceOnUse" x1="1852.9919" y1="2220.6587" x2="1945.675" y2="2744.7979">
					<stop  offset="0" style="stop-color:#AA80F9"/>
					<stop  offset="0.9964" style="stop-color:#6165D7"/>
				</linearGradient>
				<path style="fill:url(#SVGID_00000155133290879408457430000004523605587624240813_);" d="M2305.243,2502.056l-815.296,44.422
					v-256.07c26.688,172.806,55.097,209.933,76.503,210.683c30.12,1.057,46.327-69.941,91.85-74.023
					c45.165-4.05,60.393,63.252,94.197,59.19c64.226-7.72,81.673-260.249,133.704-264.025
					c41.303-2.999,69.23,153.714,105.599,145.803c26.565-5.78,32.983-94.167,53.111-94.104
					c18.232,0.057,19.002,72.717,42.988,78.378c35.142,8.293,69.306-139.408,117.705-142.291
					c26.788-1.594,60.14,41.064,99.639,189.296C2305.243,2481.012,2305.243,2420.357,2305.243,2502.056z"/>
				<path style="fill:#FFFFFF;" d="M1443.694,2008.387c0,8.592-5.982,15.718-13.366,15.917c-7.39,0.199-13.385-6.614-13.385-15.218
					c0-8.604,5.995-15.731,13.385-15.918C1437.713,1992.981,1443.694,1999.795,1443.694,2008.387z"/>
			</g>
			<g>
				<g>
					<path style="fill:#FFFFFF;" d="M555.359,962.837v837.65c0,27.81,20.236,50.008,45.143,49.583l1431.123-24.442
						c21.403-0.366,38.719-21.493,38.719-47.193v-774.064L555.359,962.837z"/>
					
						<linearGradient id="SVGID_00000173851232134083236200000014273906591369503678_" gradientUnits="userSpaceOnUse" x1="1431.5763" y1="767.6707" x2="789.7536" y2="1816.9117">
						<stop  offset="0" style="stop-color:#FF9085"/>
						<stop  offset="1" style="stop-color:#FB6FBB"/>
					</linearGradient>
					<path style="fill:url(#SVGID_00000173851232134083236200000014273906591369503678_);" d="M2031.625,904.839l-1431.123-46.86
						c-24.907-0.815-45.143,21.065-45.143,48.875v85.832l1514.985,39.268v-79.316
						C2070.344,926.938,2053.029,905.539,2031.625,904.839z"/>
					<path style="fill:#FFFFFF;" d="M658.781,926.699c0,12.3-8.917,22.019-19.928,21.707c-11.023-0.311-19.968-10.555-19.968-22.879
						c0-12.325,8.945-22.043,19.968-21.706C649.864,904.156,658.781,914.399,658.781,926.699z"/>
				</g>
				<g>
					<polygon style="fill:#F4F7FA;" points="864.794,1737.194 752.044,1738.498 752.044,1116.003 864.794,1118.251 					"/>
					
						<linearGradient id="SVGID_00000030470315654404512880000014858862084210977945_" gradientUnits="userSpaceOnUse" x1="874.976" y1="1382.3691" x2="716.7141" y2="1876.2566">
						<stop  offset="0" style="stop-color:#FF9085"/>
						<stop  offset="1" style="stop-color:#FB6FBB"/>
					</linearGradient>
					<polygon style="fill:url(#SVGID_00000030470315654404512880000014858862084210977945_);" points="864.794,1737.194 
						752.044,1738.498 752.044,1442.952 864.794,1443.334 					"/>
					<polygon style="fill:#F4F7FA;" points="1019.54,1735.405 908.564,1736.688 908.564,1119.123 1019.54,1121.336 					"/>
					
						<linearGradient id="SVGID_00000168088484979334605960000017301149639766368703_" gradientUnits="userSpaceOnUse" x1="1000.7545" y1="1548.2081" x2="913.5164" y2="1820.4519">
						<stop  offset="0" style="stop-color:#FF9085"/>
						<stop  offset="1" style="stop-color:#FB6FBB"/>
					</linearGradient>
					<polygon style="fill:url(#SVGID_00000168088484979334605960000017301149639766368703_);" points="1019.54,1735.405 
						908.564,1736.688 908.564,1590.085 1019.54,1589.632 					"/>
					<polygon style="fill:#F4F7FA;" points="1171.868,1733.644 1062.624,1734.907 1062.624,1122.195 1171.868,1124.373 					"/>
					
						<linearGradient id="SVGID_00000097494055669469006350000007746934482937286034_" gradientUnits="userSpaceOnUse" x1="1139.8081" y1="1625.6849" x2="1086.2083" y2="1792.9539">
						<stop  offset="0" style="stop-color:#FF9085"/>
						<stop  offset="1" style="stop-color:#FB6FBB"/>
					</linearGradient>
					<polygon style="fill:url(#SVGID_00000097494055669469006350000007746934482937286034_);" points="1171.868,1733.644 
						1062.624,1734.907 1062.624,1658.545 1171.868,1657.711 					"/>
					<polygon style="fill:#F4F7FA;" points="1321.833,1731.909 1214.282,1733.153 1214.282,1125.218 1321.833,1127.363 					"/>
					
						<linearGradient id="SVGID_00000005268397253244605600000016978175671111365519_" gradientUnits="userSpaceOnUse" x1="1370.3667" y1="1175.1329" x2="1127.0704" y2="1934.387">
						<stop  offset="0" style="stop-color:#FF9085"/>
						<stop  offset="1" style="stop-color:#FB6FBB"/>
					</linearGradient>
					<polygon style="fill:url(#SVGID_00000005268397253244605600000016978175671111365519_);" points="1321.833,1731.909 
						1214.282,1733.153 1214.282,1256.908 1321.833,1258.318 					"/>
					<polygon style="fill:#F4F7FA;" points="1469.491,1730.202 1363.593,1731.426 1363.593,1128.195 1469.491,1130.307 					"/>
					
						<linearGradient id="SVGID_00000129916335271621955400000012055620990539808165_" gradientUnits="userSpaceOnUse" x1="1507.2867" y1="1238.1974" x2="1291.5045" y2="1911.5886">
						<stop  offset="0" style="stop-color:#FF9085"/>
						<stop  offset="1" style="stop-color:#FB6FBB"/>
					</linearGradient>
					<polygon style="fill:url(#SVGID_00000129916335271621955400000012055620990539808165_);" points="1469.491,1730.202 
						1363.593,1731.426 1363.593,1312.566 1469.491,1313.657 					"/>
					<polygon style="fill:#F4F7FA;" points="1614.894,1728.521 1510.611,1729.727 1510.611,1131.126 1614.894,1133.206 					"/>
					
						<linearGradient id="SVGID_00000000907619905664671820000014288167572025005207_" gradientUnits="userSpaceOnUse" x1="1671.9114" y1="1132.6912" x2="1412.3351" y2="1942.7502">
						<stop  offset="0" style="stop-color:#FF9085"/>
						<stop  offset="1" style="stop-color:#FB6FBB"/>
					</linearGradient>
					<polygon style="fill:url(#SVGID_00000000907619905664671820000014288167572025005207_);" points="1614.894,1728.521 
						1510.611,1729.727 1510.611,1218.163 1614.894,1219.765 					"/>
					<polygon style="fill:#F4F7FA;" points="1758.094,1726.865 1655.39,1728.052 1655.39,1134.013 1758.094,1136.061 					"/>
					
						<linearGradient id="SVGID_00000085209319753708525730000013211992533226499720_" gradientUnits="userSpaceOnUse" x1="1786.5028" y1="1296.1056" x2="1596.8549" y2="1887.9396">
						<stop  offset="0" style="stop-color:#FF9085"/>
						<stop  offset="1" style="stop-color:#FB6FBB"/>
					</linearGradient>
					<polygon style="fill:url(#SVGID_00000085209319753708525730000013211992533226499720_);" points="1758.094,1726.865 
						1655.39,1728.052 1655.39,1363.168 1758.094,1363.967 					"/>
					<polygon style="fill:#F4F7FA;" points="1899.14,1725.234 1797.978,1726.403 1797.978,1136.856 1899.14,1138.873 					"/>
					
						<linearGradient id="SVGID_00000093142353919592941370000013927476804630510239_" gradientUnits="userSpaceOnUse" x1="1896.2189" y1="1474.7463" x2="1782.9258" y2="1828.2998">
						<stop  offset="0" style="stop-color:#FF9085"/>
						<stop  offset="1" style="stop-color:#FB6FBB"/>
					</linearGradient>
					<polygon style="fill:url(#SVGID_00000093142353919592941370000013927476804630510239_);" points="1899.14,1725.234 
						1797.978,1726.403 1797.978,1521.724 1899.14,1521.66 					"/>
				</g>
			</g>
			<g>
				<g>
					<path style="fill:#FFFFFF;" d="M499.788,2106.288v486.268c0,16.144,10.577,28.639,23.608,27.911l772.381-43.171
						c11.916-0.666,21.563-13.696,21.563-29.106v-464.135L499.788,2106.288z"/>
					
						<linearGradient id="SVGID_00000106129628452962157010000014556222603731082375_" gradientUnits="userSpaceOnUse" x1="978.8376" y1="1967.3428" x2="599.8936" y2="2586.8342">
						<stop  offset="0.0036" style="stop-color:#E38DDD"/>
						<stop  offset="1" style="stop-color:#9571F6"/>
					</linearGradient>
					<path style="fill:url(#SVGID_00000106129628452962157010000014556222603731082375_);" d="M1295.777,2025.648l-772.381,18.349
						c-13.031,0.31-23.608,13.648-23.608,29.792v49.826l817.552-23.021v-47.559
						C1317.34,2037.627,1307.693,2025.365,1295.777,2025.648z"/>
					<path style="fill:#FFFFFF;" d="M554.66,2081.043c0,7.156-4.678,13.081-10.452,13.234c-5.777,0.154-10.464-5.529-10.464-12.693
						s4.686-13.089,10.464-13.234C549.982,2068.205,554.66,2073.887,554.66,2081.043z"/>
				</g>
				<g>
					
						<linearGradient id="SVGID_00000114787406778480960790000016782957902107621022_" gradientUnits="userSpaceOnUse" x1="670.325" y1="2211.3284" x2="513.8314" y2="2459.7207">
						<stop  offset="0" style="stop-color:#FF9085"/>
						<stop  offset="1" style="stop-color:#FB6FBB"/>
					</linearGradient>
					<path style="fill:url(#SVGID_00000114787406778480960790000016782957902107621022_);" d="M624.099,2339.226
						c7.171-17.067,20.615-29.561,36.403-32.466l1.104-83.14c-44.906,3.677-83.334,39.612-100.474,89.129L624.099,2339.226z"/>
					<path style="fill:#D8DEE8;" d="M673.132,2306.527c21.335,3.174,37.966,24.306,39.954,51.302l65.918,0.63
						c-0.841-73.484-46.594-131.815-104.77-135.01L673.132,2306.527z"/>
					<path style="fill:#D8DEE8;" d="M712.579,2373.563c-3.878,27.856-23.212,49.776-46.537,50.834
						c-6.879,0.312-13.42-1.224-19.328-4.249l-35.138,72.498c16.219,10.196,34.779,15.514,54.466,14.53
						c58.902-2.943,107.014-61.284,112.459-133.041L712.579,2373.563z"/>
					<path style="fill:#D8DEE8;" d="M600.762,2484.845l35.179-72.523c-10.619-10.395-17.4-26.591-17.4-45.057
						c0-4.462,0.399-8.824,1.149-13.035l-62.998-26.43c-3.301,13.431-5.079,27.632-5.079,42.276
						C551.613,2418.569,571.082,2460.499,600.762,2484.845z"/>
				</g>
				<g>
					<path style="fill:#D8DEE8;" d="M869.43,2329.305c6.975-16.828,20.052-29.144,35.41-32l1.074-81.999
						c-43.68,3.606-81.057,39.028-97.728,87.853L869.43,2329.305z"/>
					
						<linearGradient id="SVGID_00000046341685564918687670000011565988188121987999_" gradientUnits="userSpaceOnUse" x1="963.483" y1="2222.8623" x2="991.9243" y2="2767.3188">
						<stop  offset="0" style="stop-color:#FFC444"/>
						<stop  offset="0.9964" style="stop-color:#F36F56"/>
					</linearGradient>
					<path style="fill:url(#SVGID_00000046341685564918687670000011565988188121987999_);" d="M917.127,2297.081
						c20.754,3.142,36.932,23.993,38.867,50.62l64.129,0.659c-0.818-72.482-45.33-130.039-101.924-133.217L917.127,2297.081z"/>
					<path style="fill:#D8DEE8;" d="M955.499,2363.22c-3.772,27.472-22.581,49.081-45.271,50.109
						c-6.691,0.303-13.054-1.215-18.801-4.203l-34.179,71.479c15.776,10.066,33.829,15.324,52.979,14.367
						c57.299-2.863,104.106-60.376,109.404-131.151L955.499,2363.22z"/>
					<path style="fill:#D8DEE8;" d="M846.732,2472.905l34.218-71.503c-10.329-10.259-16.925-26.236-16.925-44.448
						c0-4.4,0.388-8.702,1.118-12.855l-61.274-26.101c-3.21,13.244-4.94,27.248-4.94,41.69
						C798.929,2407.512,817.864,2448.875,846.732,2472.905z"/>
				</g>
				<g>
					<path style="fill:#D8DEE8;" d="M1108.105,2319.652c6.787-16.596,19.512-28.738,34.457-31.548l1.045-80.888
						c-42.504,3.537-78.872,38.46-95.092,86.613L1108.105,2319.652z"/>
					<path style="fill:#D8DEE8;" d="M1154.517,2287.89c20.197,3.11,35.941,23.688,37.823,49.957l62.413,0.686
						c-0.796-71.508-44.117-128.311-99.193-131.471L1154.517,2287.89z"/>
					<path style="fill:#D8DEE8;" d="M1191.86,2353.156c-3.671,27.099-21.975,48.405-44.055,49.406
						c-6.512,0.295-12.703-1.207-18.295-4.157l-33.258,70.488c15.351,9.94,32.917,15.139,51.553,14.208
						c55.76-2.787,101.314-59.494,106.471-129.313L1191.86,2353.156z"/>
					
						<linearGradient id="SVGID_00000072266726094450858470000006812682434360747417_" gradientUnits="userSpaceOnUse" x1="1085.5686" y1="2296.3303" x2="1043.8429" y2="2769.916">
						<stop  offset="0" style="stop-color:#AA80F9"/>
						<stop  offset="0.9964" style="stop-color:#6165D7"/>
					</linearGradient>
					<path style="fill:url(#SVGID_00000072266726094450858470000006812682434360747417_);" d="M1086.019,2461.29l33.295-70.511
						c-10.051-10.126-16.469-25.89-16.469-43.855c0-4.341,0.378-8.584,1.088-12.68l-59.62-25.779
						c-3.123,13.062-4.806,26.874-4.806,41.119C1039.507,2396.756,1057.93,2437.568,1086.019,2461.29z"/>
				</g>
			</g>
		</g>
		<g>
			
				<linearGradient id="SVGID_00000100361657822233639470000006328321474632484282_" gradientUnits="userSpaceOnUse" x1="2914.1047" y1="2749.3357" x2="2934.1907" y2="3004.9729" gradientTransform="matrix(1 0 0 1 -626.2627 0)">
				<stop  offset="0" style="stop-color:#AA80F9"/>
				<stop  offset="0.9964" style="stop-color:#6165D7"/>
			</linearGradient>
			<path style="fill:url(#SVGID_00000100361657822233639470000006328321474632484282_);" d="M2324.174,2877.2
				c0,0-72.086,36.632-73.263,42.479c-1.178,5.848,46.359-1.96,65.764-1.116c19.407,0.843,35.37-5.569,33.614-14.759
				c-1.757-9.192-8.55-32.305-8.55-32.305L2324.174,2877.2z"/>
			
				<linearGradient id="SVGID_00000152977058259171056250000001354762126564549794_" gradientUnits="userSpaceOnUse" x1="2961.8103" y1="2891.9849" x2="2958.1685" y2="2627.9355" gradientTransform="matrix(1 0 0 1 -626.2627 0)">
				<stop  offset="0" style="stop-color:#FFC444"/>
				<stop  offset="0.9964" style="stop-color:#F36F56"/>
			</linearGradient>
			<path style="fill:url(#SVGID_00000152977058259171056250000001354762126564549794_);" d="M2321.537,2847.472l4.385,36.288
				c0,0,11.413,4.542,19.078-0.828l3.271-39.799L2321.537,2847.472z"/>
			
				<linearGradient id="SVGID_00000005968636262412189940000005574852362555538056_" gradientUnits="userSpaceOnUse" x1="3252.3516" y1="2719.436" x2="3272.4902" y2="2975.7454" gradientTransform="matrix(1 0 0 1 -626.2627 0)">
				<stop  offset="0" style="stop-color:#AA80F9"/>
				<stop  offset="0.9964" style="stop-color:#6165D7"/>
			</linearGradient>
			<path style="fill:url(#SVGID_00000005968636262412189940000005574852362555538056_);" d="M2661.018,2848.342l8.385,15.051
				c2.345,4.208,3.043,9.275,1.919,14.072c-2.931,12.516-8.788,36.906-11.341,43.266c-3.477,8.662-50.126,13.809-50.126,13.809
				s-4.161-6.544,5.525-14.45c9.684-7.906,15.91-9.148,19.329-20.815c3.418-11.665,5.698-44.663,5.698-44.663L2661.018,2848.342z"/>
			
				<linearGradient id="SVGID_00000060741130779605105650000001562291639005314179_" gradientUnits="userSpaceOnUse" x1="3271.9663" y1="2887.2014" x2="3268.325" y2="2623.1858" gradientTransform="matrix(1 0 0 1 -626.2627 0)">
				<stop  offset="0" style="stop-color:#FFC444"/>
				<stop  offset="0.9964" style="stop-color:#F36F56"/>
			</linearGradient>
			<path style="fill:url(#SVGID_00000060741130779605105650000001562291639005314179_);" d="M2626.117,2810.097
				c3.064,2.729,18.046,53.575,18.046,53.575s4.85,6.933,14.063-3.299c9.212-10.233,4.169-4.59,4.169-4.59l-1.727-50.009
				L2626.117,2810.097z"/>
			
				<linearGradient id="SVGID_00000094600405156506141490000006990875904448488370_" gradientUnits="userSpaceOnUse" x1="2279.145" y1="2464.4272" x2="2453.678" y2="2464.4272">
				<stop  offset="0" style="stop-color:#FF9085"/>
				<stop  offset="1" style="stop-color:#FB6FBB"/>
			</linearGradient>
			<path style="fill:url(#SVGID_00000094600405156506141490000006990875904448488370_);" d="M2281.875,2118.418
				c-3.804,108.247-3.958,225.853,1.613,351.491c6.271,141.479,18.875,272.24,34.76,390.776c5.905,0.211,12.11,0.245,18.591,0.042
				c4.378-0.136,8.619-0.375,12.717-0.691c8.243-24.579,17.987-56.901,26.711-95.509c9.172-40.596,14.707-77.011,18.649-111.832
				c13.881-122.605-2.386-133.301,8.879-224.164c9.978-80.472,24.166-83.614,40.823-197.866
				c18.073-123.967,4.619-142.566-1.923-149.283C2414.843,2052.78,2349.419,2072.252,2281.875,2118.418z"/>
			
				<linearGradient id="SVGID_00000173136043340373692910000008104622826979411595_" gradientUnits="userSpaceOnUse" x1="2291.2126" y1="2464.4351" x2="2453.6772" y2="2464.4351">
				<stop  offset="0" style="stop-color:#FF9085"/>
				<stop  offset="1" style="stop-color:#FB6FBB"/>
			</linearGradient>
			<path style="opacity:0.3;fill:url(#SVGID_00000173136043340373692910000008104622826979411595_);" d="M2442.695,2081.383
				c-26.566-27.282-87.317-10.766-151.482,30.871c73.817,89.169,81.864,147.014,73.014,184.546
				c-10,42.42-40.407,54.638-40.292,101.022c0.144,57.002,46.154,72.101,45.177,132.419c-0.648,39.886-20.865,39.471-25.641,88.734
				c-5.649,58.289,20.764,78.373,12.209,121.499c-3.68,18.553-14.185,42.797-44.105,67.771c2.157,17.709,4.369,35.24,6.675,52.441
				c5.903,0.208,12.108,0.245,18.59,0.039c4.378-0.134,8.619-0.373,12.717-0.689c8.243-24.579,17.987-56.9,26.712-95.507
				c9.172-40.598,14.707-77.012,18.649-111.833c13.88-122.605-2.386-133.301,8.879-224.164
				c9.978-80.472,24.166-83.616,40.822-197.867C2462.69,2106.697,2449.237,2088.099,2442.695,2081.383z"/>
			
				<linearGradient id="SVGID_00000153695716089824084240000013442055705252891563_" gradientUnits="userSpaceOnUse" x1="2327.5981" y1="2445.1914" x2="2678.9524" y2="2445.1914">
				<stop  offset="0" style="stop-color:#FF9085"/>
				<stop  offset="1" style="stop-color:#FB6FBB"/>
			</linearGradient>
			<path style="fill:url(#SVGID_00000153695716089824084240000013442055705252891563_);" d="M2327.598,2116.601
				c63.559,103.98,132.115,233.389,193.423,388.285c46.332,117.057,79.934,226.962,104.605,324.911
				c3.339,1.728,11.214,5.175,21.278,3.688c13.725-2.029,21.951-11.825,24.101-14.559c10.041-70.216,8.935-129.684,5.526-172.603
				c-2.182-27.48-6.043-73.241-21.709-129.733c-17.547-63.281-29.611-66.837-52.502-133.785
				c-23.761-69.49-18.005-86.831-40.76-173.793c-9.347-35.725-24.995-88.887-50.814-152.478
				C2449.695,2076.556,2388.646,2096.579,2327.598,2116.601z"/>
			
				<linearGradient id="SVGID_00000183947713557519408460000012087858716735544248_" gradientUnits="userSpaceOnUse" x1="2578.3979" y1="1549.3533" x2="2914.1736" y2="1856.673">
				<stop  offset="0.0036" style="stop-color:#26264F"/>
				<stop  offset="1" style="stop-color:#444B8C"/>
			</linearGradient>
			<path style="fill:url(#SVGID_00000183947713557519408460000012087858716735544248_);" d="M2310.684,1664.81
				c-70.181-45.836-100.254-40.552-120.6-81.719c-20.124-40.72-20.079-105.326,13.223-139.552
				c2.445-2.514,27.811-27.772,62.138-23.445c51.918,6.549,55.741,72.136,113.976,102.183
				c49.344,25.462,103.155,7.554,139.572-4.567c87.693-29.185,100.715-84.389,146.182-75.59
				c56.973,11.025,62.012,102.632,118.772,108.276c37.936,3.771,46.973-36.026,96.846-46.985
				c58.603-12.881,122.908,25.198,158.973,71.502c65.918,84.634,48.554,210.957,7.309,288.068
				c-33.883,63.349-106.737,136.217-168.109,120.541c-48.485-12.384-64.271-73.501-105.982-67.419
				c-29.656,4.326-30.729,36.541-65.782,53.12c-57.562,27.228-128.625-24.665-148.009-38.822
				c-55.25-40.347-46.45-66.151-117.693-147.038C2413.358,1751.414,2372.832,1705.397,2310.684,1664.81z"/>
			
				<linearGradient id="SVGID_00000057839430922156880550000008654434904267523774_" gradientUnits="userSpaceOnUse" x1="1745.5293" y1="1461.757" x2="1808.0302" y2="1461.757">
				<stop  offset="0" style="stop-color:#893976"/>
				<stop  offset="1" style="stop-color:#311944"/>
			</linearGradient>
			<path style="fill:url(#SVGID_00000057839430922156880550000008654434904267523774_);" d="M1808.03,1486.526
				c0,0-11.86-16.595-19.385-28.926c-7.525-12.332-42.656-46.979-42.656-46.979s-2.676,5.498,4.886,14.296
				c7.562,8.797,23.477,23.874,19.818,30.252c-3.659,6.379-13.96,12.001-6.527,24.046c7.434,12.044,20.361,3.819,26.971,13.48
				c6.608,9.66,13.378,20.199,13.378,20.199L1808.03,1486.526z"/>
			
				<linearGradient id="SVGID_00000151538401678008934750000012440146447578140569_" gradientUnits="userSpaceOnUse" x1="2106.113" y1="1689.9165" x2="2765.4741" y2="2081.7793">
				<stop  offset="0" style="stop-color:#AA80F9"/>
				<stop  offset="0.9964" style="stop-color:#6165D7"/>
			</linearGradient>
			<path style="fill:url(#SVGID_00000151538401678008934750000012440146447578140569_);" d="M1812.659,1475.698
				c-7.999,13.533-15.999,27.06-23.999,40.592c8.328,27.2,22.683,64.97,47.833,104.82c11.093,17.578,45.487,69.146,103.72,110.617
				c79.271,56.45,223.69,109.117,265.965,49.045c37.724-53.602-23.164-172.415-34.377-193.746
				c-22.694,11.897-59.986,27.676-107.922,31.408c-15.71,1.224-56.599,4.01-102.664-11.812
				C1875.961,1577.339,1828.63,1503.436,1812.659,1475.698z"/>
			
				<linearGradient id="SVGID_00000067226777454541271410000009933046514071350459_" gradientUnits="userSpaceOnUse" x1="2062.4526" y1="1763.3813" x2="2721.8137" y2="2155.2441">
				<stop  offset="0" style="stop-color:#AA80F9"/>
				<stop  offset="0.9964" style="stop-color:#6165D7"/>
			</linearGradient>
			<path style="fill:url(#SVGID_00000067226777454541271410000009933046514071350459_);" d="M2079.313,1657.059
				c3.989,20.045,66.337,9.295,79.205,45.681c6.905,19.525-7.755,31.927-8.369,65.086c-0.688,37.121,17.005,58.203,30.578,87.405
				c19.879,42.772,19.953,84.701,20.101,168.55c0.209,119.362-26.183,143.363-3.655,181.832
				c29.324,50.074,99.741,53.27,118.772,54.138c65.091,2.957,72.813-31.621,143.441-35.751
				c80.662-4.716,92.15,39.127,149.837,20.428c52.698-17.083,70.43-62.524,111.464-53.115c25.646,5.877,32.447,26.778,56.645,24.516
				c24.315-2.274,49.45-26.371,51.163-51.08c2.13-30.711-31.442-69.401-84.055-69.461c-20.906,8.206-55.562,17.717-94.105,7.153
				c-63.15-17.309-95.996-77.349-132.477-144.033c-25.238-46.13-71.625-130.92-72.177-242.099
				c-0.228-45.849,7.521-59.262-3.655-83.766c-36.29-79.576-177.085-67.701-189.008-66.552
				C2157.083,1575.238,2074.496,1632.854,2079.313,1657.059z"/>
			<g>
				
					<linearGradient id="SVGID_00000109029589054173840150000004876560701682469777_" gradientUnits="userSpaceOnUse" x1="2203.6655" y1="1853.6068" x2="2094.2939" y2="2034.8942">
					<stop  offset="0.0036" style="stop-color:#6165D7"/>
					<stop  offset="1" style="stop-color:#AA80F9"/>
				</linearGradient>
				<path style="fill:url(#SVGID_00000109029589054173840150000004876560701682469777_);" d="M2047.858,1757.208l176.846,7.717
					c1.942,0.084,3.643,1.477,4.302,3.521l83.309,258.398c1.195,3.707-2.551,12.978-6.054,12.557l-174.845-26.594
					c-1.778-0.214-3.299-1.523-3.942-3.388l-86.674-241.187C2039.571,1764.655,2044.435,1757.058,2047.858,1757.208z"/>
				<path style="fill:#FFFFFF;" d="M2045.115,1763.532l176.846,7.717c1.941,0.084,3.643,1.477,4.302,3.52l83.309,258.399
					c1.195,3.706-1.494,7.532-4.997,7.111l-175.902-21.149c-1.779-0.213-3.3-1.522-3.942-3.388l-84.253-244.966
					C2039.247,1767.199,2041.69,1763.383,2045.115,1763.532z"/>
				
					<linearGradient id="SVGID_00000029736842314982532570000008998601043952794276_" gradientUnits="userSpaceOnUse" x1="2154.8459" y1="1663.5465" x2="2122.6877" y2="1768.7916">
					<stop  offset="0.0036" style="stop-color:#26264F"/>
					<stop  offset="1" style="stop-color:#444B8C"/>
				</linearGradient>
				<path style="fill:url(#SVGID_00000029736842314982532570000008998601043952794276_);" d="M2093.473,1773.156l-6.815-20.6
					c-0.615-1.859,0.615-3.836,2.389-3.836h64.372c1.11,0,2.091,0.803,2.427,1.986l6.472,22.785c0.531,1.871-0.75,3.768-2.505,3.708
					l-64.03-2.186C2094.748,1774.979,2093.833,1774.244,2093.473,1773.156z"/>
				<path style="fill:#F4F7FA;" d="M2202.334,1977.728c-11.487-41.646,7.418-68.766-11.877-101.13
					c-27.292-45.776-85.926-26.401-104.154-63.338c-4.916-9.959-7.267-24.803-0.636-47.961l-40.552-1.766
					c-3.424-0.149-5.868,3.663-4.637,7.242l84.253,244.967c0.642,1.867,2.164,3.173,3.942,3.388l106.905,12.857
					C2216.537,2013.42,2207.002,1994.656,2202.334,1977.728z"/>
			</g>
			
				<linearGradient id="SVGID_00000122720657077023280420000010054988773095619254_" gradientUnits="userSpaceOnUse" x1="2232.7915" y1="1941.4326" x2="2331.4763" y2="1941.4326">
				<stop  offset="0" style="stop-color:#893976"/>
				<stop  offset="1" style="stop-color:#311944"/>
			</linearGradient>
			<path style="fill:url(#SVGID_00000122720657077023280420000010054988773095619254_);" d="M2331.476,1946.782
				c0,0-26.723-5.944-37.03-13.196c-10.307-7.258-21.236-18.91-36.432-18.276c-15.195,0.64-30.487,9.275-23.467,11.26
				c7.02,1.98,20.132,17.549,30.149,23.679c10.017,6.13,32.906,6.683,37.169,6.349c4.262-0.334,21.089,10.981,21.089,10.981
				L2331.476,1946.782z"/>
			
				<linearGradient id="SVGID_00000149376948980916271060000011758484084658810040_" gradientUnits="userSpaceOnUse" x1="2192.8354" y1="1559.1627" x2="2643.7764" y2="2431.2458">
				<stop  offset="0" style="stop-color:#AA80F9"/>
				<stop  offset="0.9964" style="stop-color:#6165D7"/>
			</linearGradient>
			<path style="opacity:0.3;fill:url(#SVGID_00000149376948980916271060000011758484084658810040_);" d="M2744.44,2095.289
				c-20.906,8.206-55.562,17.717-94.105,7.153c-63.15-17.309-95.997-77.349-132.477-144.033
				c-25.238-46.13-71.625-130.92-72.177-242.099c-0.228-45.849,7.521-59.262-3.654-83.766c-1.779-3.896-3.875-7.518-6.127-10.99
				c-27.568,20.835-38.259,41.7-41.383,60.022c-7.603,44.592,28.251,81.055,9.594,119.517
				c-17.871,36.84-62.052,26.648-71.264,58.227c-9.938,34.068,38.958,54.616,41.114,107.259
				c2.588,63.177-65.355,94.116-53.448,136.373c10.321,36.624,67.18,33.985,67.152,53.629c-0.034,23.355,1.758-24.869-67.152-53.629
				c-20.884-8.715-119.173,63.829-131.118,51.097c-2.572,20.584-2.108,34.686,7.777,51.565
				c29.324,50.074,99.741,53.27,118.772,54.138c65.091,2.957,72.813-31.621,143.441-35.751
				c80.662-4.716,92.15,39.127,149.837,20.428c52.698-17.083,70.43-62.524,111.464-53.115c25.646,5.877,32.447,26.778,56.645,24.516
				c24.315-2.274,49.45-26.371,51.163-51.08C2830.625,2134.039,2797.052,2095.349,2744.44,2095.289z"/>
			
				<linearGradient id="SVGID_00000055685766342888582090000000379630726656486545_" gradientUnits="userSpaceOnUse" x1="2228.7053" y1="1809.4457" x2="2852.8706" y2="1755.4764">
				<stop  offset="0" style="stop-color:#AA80F9"/>
				<stop  offset="0.9964" style="stop-color:#6165D7"/>
			</linearGradient>
			<path style="fill:url(#SVGID_00000055685766342888582090000000379630726656486545_);" d="M2330.792,1934.4
				c-8.223,16.346-16.445,32.687-24.668,49.033c12.677,6.943,148.212,78.643,246.453,7.662c12.147-8.775,44.428-32.1,61.828-77.776
				c19.178-50.343,8.42-97.149,1.441-127.549c-17.275-75.255-66.13-154.197-135.447-185.914
				c-26.477-12.115-57.913-18.244-87.481-24.008c-25.075-4.89-64.485-10.881-65.324-6.637c-0.41,2.071,8.748,4.716,15.107,8.739
				c39.058,24.701-10.532,126.718,35.371,175.643c43.973,46.866,101.044,39.127,110.242,81.6c4.276,19.746-4.575,37.51-8.518,45.423
				C2457.794,1924.77,2398.571,1944.533,2330.792,1934.4z"/>
			
				<linearGradient id="SVGID_00000039823845129426422260000002165533712502079908_" gradientUnits="userSpaceOnUse" x1="2545.5562" y1="1783.3492" x2="2671.8425" y2="1600.0299" gradientTransform="matrix(0.9787 -0.2054 0.2054 0.9787 -614.8153 371.9818)">
				<stop  offset="0" style="stop-color:#893976"/>
				<stop  offset="1" style="stop-color:#311944"/>
			</linearGradient>
			<path style="fill:url(#SVGID_00000039823845129426422260000002165533712502079908_);" d="M2238.799,1492.619
				c0,0,15.917,51.736,35.741,59.795c19.824,8.052,51.162,17.299,55.096,20.884c3.933,3.577-105.321,43.244-166.58,24.988l0,0
				c17.455-8.54,22.124-11.269,22.124-11.269c4.661-2.729,13.357-7.809,21.512-15.886c5.553-5.494,14.245-15.724,20.787-32.722
				l-5.726-29.372L2238.799,1492.619z"/>
			
				<linearGradient id="SVGID_00000170966265800227742420000011109994688782369927_" gradientUnits="userSpaceOnUse" x1="2531.2288" y1="1693.3794" x2="2754.4243" y2="1559.0063" gradientTransform="matrix(0.9787 -0.2054 0.2054 0.9787 -614.8153 371.9818)">
				<stop  offset="0" style="stop-color:#893976"/>
				<stop  offset="1" style="stop-color:#311944"/>
			</linearGradient>
			<path style="fill:url(#SVGID_00000170966265800227742420000011109994688782369927_);" d="M2245.946,1515.205
				c0,0-9.227,22.928-31.104,19.409c-19.591-3.15-18.593-58.248-5.284-67.629c4.438-3.127,13.445-4.318,20.129-1.583
				c4.701,1.922,18.693,14.735,15.575,33.505c4.317-2.568,8.617-2.166,10.108,0.143c1.894,2.926-1.175,8.236-1.869,9.439
				C2251.092,1512.659,2247.586,1514.491,2245.946,1515.205z"/>
		</g>
	</g>
</g>
</svg>
