<?xml version="1.0" encoding="utf-8"?>
<!-- Generator: Adobe Illustrator 27.5.0, SVG Export Plug-In . SVG Version: 6.00 Build 0)  -->
<svg version="1.1" xmlns="http://www.w3.org/2000/svg" xmlns:xlink="http://www.w3.org/1999/xlink" x="0px" y="0px"
	 viewBox="0 0 3710 3710" style="enable-background:new 0 0 3710 3710;" xml:space="preserve">
<g id="Background">
	<g>
		<g>
			<rect style="fill:#FFFFFF;" width="3710" height="3710"/>
		</g>
	</g>
</g>
<g id="Illustration">
	<g>
		<path style="fill:#F4F7FA;" d="M2908.004,898.26c-40.446-55.362-386.71-513.184-947.987-490.883
			c-28.046,1.115-575.443,30.023-777.346,388.9c-149.354,265.471,8.768,501.01-173.433,681.882
			c-158.758,157.601-353.867,53.285-451.428,180.727c-148.611,194.132,88.055,718.433,451.68,1010.831
			c375.465,301.92,1093.774,523.421,1652.071,120.601C3288.371,2338.066,3282.01,1410.186,2908.004,898.26z"/>
		<g>
			<g>
				<g>
					<defs>
						<path id="SVGID_1_" d="M2090.889,2037.981c-54.549-64.128-128.123-171.259-129.914-305.522
							c-3.125-234.234,215.744-287.411,280.474-579.261c52.208-235.39-62.63-324.963,35.165-519.309
							c16.369-32.531,100.665-208.07,237.562-215.094c77.142-3.959,136.729,47.263,147.915,56.879
							c169.061,145.331,154.925,540.389-7.878,815.005c-93.537,157.778-152.838,160.21-344.055,393.567
							C2197.797,1821.369,2129.931,1951.785,2090.889,2037.981z"/>
					</defs>
					
						<linearGradient id="SVGID_00000064336758902527219000000012491465500960968075_" gradientUnits="userSpaceOnUse" x1="2575.3652" y1="657.6943" x2="2140.9683" y2="1953.7667">
						<stop  offset="0" style="stop-color:#FF9085"/>
						<stop  offset="1" style="stop-color:#FB6FBB"/>
					</linearGradient>
					
						<use xlink:href="#SVGID_1_"  style="overflow:visible;fill:url(#SVGID_00000064336758902527219000000012491465500960968075_);"/>
					<clipPath id="SVGID_00000155114375084834565560000001600109401582116753_">
						<use xlink:href="#SVGID_1_"  style="overflow:visible;"/>
					</clipPath>
					<g style="opacity:0.7;clip-path:url(#SVGID_00000155114375084834565560000001600109401582116753_);">
						<path style="fill:#FFFFFF;" d="M2118.429,2137.202c-66.846-191.542-68.333-346.328-4.425-460.058
							c31.289-55.684,66.583-82.723,103.949-111.349c40.142-30.75,81.649-62.548,119.071-133.405
							c36.365-68.856,36.864-114.427,37.491-172.123c0.565-51.94,1.272-116.579,28.721-218.611
							c24.057-89.433,50.187-140.219,73.243-185.028c24.951-48.501,44.664-86.81,52.394-156.272
							c12.63-113.48-16.282-231.894-85.931-351.95l3.07-1.781c70.038,120.729,99.102,239.872,86.389,354.123
							c-7.803,70.112-27.647,108.679-52.768,157.504c-22.973,44.651-49.012,95.259-72.973,184.327
							c-27.332,101.599-28.031,165.988-28.596,217.727c-0.634,58.175-1.133,104.126-37.9,173.741
							c-37.786,71.545-79.608,103.582-120.051,134.566c-37.068,28.397-72.082,55.221-103.017,110.271
							c-63.388,112.802-61.812,266.609,4.681,457.151L2118.429,2137.202z"/>
						<path style="fill:#FFFFFF;" d="M2466.857,879.7l-0.523-2.316c-0.645-2.843-66.143-284.821-211.683-330.136l1.053-3.389
							c140.394,43.713,206.908,303.113,213.54,330.433c131.309-74.26,198.038-180.955,230.913-257.569
							c35.804-83.438,40.287-150.08,40.329-150.744l3.541,0.218c-0.042,0.67-4.567,67.926-40.61,151.924
							c-33.264,77.52-100.945,185.628-234.489,260.419L2466.857,879.7z"/>
						<path style="fill:#FFFFFF;" d="M2381.612,1151.81l-0.409-1.469c-20.873-74.967-67.758-153.149-103.416-205.534
							c-38.673-56.812-72.844-96.373-73.184-96.767l2.682-2.325c0.343,0.395,34.622,40.085,73.409,97.058
							c35.578,52.268,82.3,130.138,103.51,205.125c11.237-1.604,83.804-13.181,171.776-55.157
							c87.893-41.94,209.59-123.684,290.213-274.941l3.132,1.67c-81.105,152.158-203.526,234.363-291.938,276.53
							c-95.796,45.688-173.488,55.531-174.261,55.627L2381.612,1151.81z"/>
						<path style="fill:#FFFFFF;" d="M2276.28,1541.286c-13.916,0-21.573-0.677-21.767-0.695l-1.861-0.175l0.27-1.849
							c24.917-170.231-124.76-336.865-126.278-338.53l2.626-2.389c1.518,1.67,151.219,168.331,127.432,339.544
							c20.814,1.312,212.389,8.891,439.245-134.152l1.892,3.001c-125.522,79.149-239.323,111.517-312.687,124.734
							C2336.321,1539.573,2298.4,1541.286,2276.28,1541.286z"/>
					</g>
				</g>
			</g>
			<g>
				
					<linearGradient id="SVGID_00000028316956541414223170000011846820172989659014_" gradientUnits="userSpaceOnUse" x1="3170.0754" y1="-2490.8489" x2="4042.8284" y2="-3449.8003" gradientTransform="matrix(0.9998 0.0187 -0.0187 0.9998 2544.4749 367.1248)">
					<stop  offset="0.0036" style="stop-color:#E38DDD"/>
					<stop  offset="1" style="stop-color:#9571F6"/>
				</linearGradient>
				<path style="fill:url(#SVGID_00000028316956541414223170000011846820172989659014_);" d="M2246.581,1389.915
					c33.752-45.793,90.929-114.761,176.622-180.332c152.419-116.63,242.933-106.112,292.294-202.424
					c51.094-99.694-21.73-158.104,41.403-271.395c5.309-9.525,73.85-128.836,172.156-124.411
					c68.772,3.096,115.186,65.086,136.964,94.172c84.521,112.887,121.708,314.486,17.101,453.643
					c-99.175,131.933-275.661,141.339-331.812,143.959c-98.508,4.596-131.366-23.762-230.623-16.343
					C2399.979,1295.806,2305.861,1348.413,2246.581,1389.915z"/>
			</g>
			<g>
				<g>
					<defs>
						<path id="SVGID_00000022543904476697574320000016567985993015764642_" d="M1645.134,2151.122
							c-33.31-101.508-67.214-256.474-27.524-428.522c45.575-197.558,146.532-237.084,237.178-448.26
							c129.394-301.447-17.048-519.806,116.904-611.94c65.324-44.929,168.044-44.966,231.374,0.141
							c180.685,128.695,131.152,689.257-155.524,908.003c-129.655,98.933-242.794,87.196-340.089,215.217
							C1621.481,1898.886,1628.222,2048.122,1645.134,2151.122z"/>
					</defs>
					
						<linearGradient id="SVGID_00000011001771869845111570000014748349037823180478_" gradientUnits="userSpaceOnUse" x1="1729.3535" y1="720.2758" x2="2089.4873" y2="1866.1548">
						<stop  offset="0" style="stop-color:#FFC444"/>
						<stop  offset="0.9964" style="stop-color:#F36F56"/>
					</linearGradient>
					
						<use xlink:href="#SVGID_00000022543904476697574320000016567985993015764642_"  style="overflow:visible;fill:url(#SVGID_00000011001771869845111570000014748349037823180478_);"/>
					<clipPath id="SVGID_00000079455068823289163230000012727152826061968775_">
						<use xlink:href="#SVGID_00000022543904476697574320000016567985993015764642_"  style="overflow:visible;"/>
					</clipPath>
					<g style="clip-path:url(#SVGID_00000079455068823289163230000012727152826061968775_);">
						<path style="fill:#FFFFFF;" d="M1624.922,1895.747l-3.458-0.88c10.901-42.86,25.568-84.996,43.6-125.24
							c41.452-92.52,87.113-143.318,144.926-207.634c37.546-41.765,80.1-89.105,129.247-156.934
							c91.919-126.869,120.436-171.407,145.917-243.027c50.46-141.834,42.709-268.981,33.6-332.15
							c-12.921-89.61-42.99-174.89-89.372-253.472l3.077-1.816c46.614,78.986,76.839,164.704,89.83,254.778
							c9.158,63.494,16.947,191.296-33.773,333.854c-25.63,72.044-54.23,116.73-146.389,243.924
							c-49.255,67.983-91.877,115.396-129.479,157.229c-57.605,64.081-103.104,114.696-144.327,206.705
							C1650.376,1811.144,1635.775,1853.086,1624.922,1895.747z"/>
						<path style="fill:#FFFFFF;" d="M2112.958,1062.771l-0.052-2.938c-1.847-104.365-68.576-171.929-124.227-210.229
							c-60.426-41.588-121.15-58.622-121.756-58.79l0.949-3.441c0.613,0.168,61.916,17.365,122.834,59.289
							c55.803,38.407,122.608,105.926,125.696,210.096c11.181-6.608,56.874-35.416,98.073-87.323
							c43.423-54.71,90.606-147.049,68.77-276.254l3.52-0.596c22.065,130.567-25.662,223.888-69.58,279.182
							c-47.567,59.884-101.108,89.313-101.642,89.604L2112.958,1062.771z"/>
						<path style="fill:#FFFFFF;" d="M2097.868,1397.957c-74.691,0-131.347-25.317-132.317-25.762l-1.362-0.624l0.381-1.45
							c51.455-196.184-79.178-296.809-80.505-297.803l2.141-2.855c1.341,1.005,133.211,102.581,82.203,300.081
							c16.216,6.883,172.417,68.818,303.813-33.449l2.19,2.817C2215.649,1384.65,2152.019,1397.957,2097.868,1397.957z"/>
						<path style="fill:#FFFFFF;" d="M1977.141,1594.313c-100.751,0-152.168-45.409-152.879-46.057l-0.946-0.861l0.513-1.171
							c23.714-54.324,17.401-126.5,7.924-177.48c-10.284-55.35-26.403-98.315-26.566-98.743l3.34-1.261
							c0.163,0.43,16.393,43.693,26.736,99.351c9.497,51.096,15.824,123.338-7.637,178.343
							c10.662,8.791,109.545,83.898,294.042,16.497l1.227,3.354C2066.364,1586.936,2017.744,1594.313,1977.141,1594.313z"/>
					</g>
				</g>
			</g>
		</g>
		<g>
			<g>
				<path style="fill:#97A6B7;" d="M2274.637,2858.59c-41.645-13.813-72.771-49.157-81.548-92.598L2132.476,2466l-518.5,18.412
					l-63.812,312.524c-8.937,43.769,26.838,87.68,68.04,103.8l216.929,84.876c40.347,15.787,83.718,22.074,126.824,18.387
					l458.449-39.22c13.402-1.146,24.152-11.681,25.711-25.196c1.56-13.515,10.95-28.691-1.83-32.929L2274.637,2858.59z"/>
				
					<linearGradient id="SVGID_00000083785447774452749100000016773192028119849122_" gradientUnits="userSpaceOnUse" x1="1950.2985" y1="3420.998" x2="2014.9512" y2="2796.0168">
					<stop  offset="0" style="stop-color:#444B8C"/>
					<stop  offset="0.9964" style="stop-color:#26264F"/>
				</linearGradient>
				<path style="fill:url(#SVGID_00000083785447774452749100000016773192028119849122_);" d="M2279.768,2840.345
					c-41.603-13.64-72.698-48.539-81.466-91.434l-60.552-296.22l-505.861,18.2l-63.749,308.595
					c-8.928,43.219,14.694,86.558,55.854,102.476l216.711,83.81c40.307,15.588,83.633,21.797,126.696,18.155l457.988-38.727
					c13.388-1.132,24.128-11.534,25.686-24.88c1.558-13.345-6.496-25.942-19.263-30.128L2279.768,2840.345z"/>
			</g>
			<g>
				
					<linearGradient id="SVGID_00000031917675526312115400000015834365417941106065_" gradientUnits="userSpaceOnUse" x1="1501.619" y1="1677.1844" x2="819.1666" y2="1756.2048">
					<stop  offset="0" style="stop-color:#444B8C"/>
					<stop  offset="0.3946" style="stop-color:#383C74"/>
					<stop  offset="0.9964" style="stop-color:#26264F"/>
				</linearGradient>
				<path style="fill:url(#SVGID_00000031917675526312115400000015834365417941106065_);" d="M554.492,2665.39
					c-56.228,3.352-102.227-33.125-102.227-81.33V846.622c0-48.205,46-85.431,102.227-82.995L3154.8,876.296
					c41.281,1.789,74.708,36.593,74.708,77.591v1477.677c0,40.999-33.427,76.347-74.708,78.808L554.492,2665.39z"/>
				
					<linearGradient id="SVGID_00000058575286851566870090000009055699574885868939_" gradientUnits="userSpaceOnUse" x1="2663.0935" y1="423.9277" x2="831.2523" y2="3211.1975">
					<stop  offset="0" style="stop-color:#444B8C"/>
					<stop  offset="0.9964" style="stop-color:#26264F"/>
				</linearGradient>
				<path style="fill:url(#SVGID_00000058575286851566870090000009055699574885868939_);" d="M577.861,2665.39
					c-56.228,3.352-102.227-33.125-102.227-81.33V846.622c0-48.205,46-85.431,102.227-82.995l2600.308,112.669
					c41.281,1.789,74.707,36.593,74.707,77.591v1477.677c0,40.999-33.426,76.347-74.707,78.808L577.861,2665.39z"/>
				<path style="opacity:0.3;fill:#D8DEE8;" d="M3178.169,911.072L577.862,804.1c-30.06-1.236-54.5,18.625-54.5,44.366v1351.268
					v381.704c0,25.741,24.44,45.204,54.5,43.479l2600.308-149.321c22.126-1.271,40.018-20.13,40.018-42.127v-337.792V952.547
					C3218.187,930.55,3200.296,911.982,3178.169,911.072z"/>
				
					<linearGradient id="SVGID_00000096755024610364061460000017773900948847842723_" gradientUnits="userSpaceOnUse" x1="2428.6379" y1="779.5961" x2="287.9016" y2="3918.8689">
					<stop  offset="0" style="stop-color:#AA80F9"/>
					<stop  offset="0.9964" style="stop-color:#6165D7"/>
				</linearGradient>
				<path style="fill:url(#SVGID_00000096755024610364061460000017773900948847842723_);" d="M577.861,2477.317
					c-11.703,0.579-21.234-7.098-21.234-17.11V849.75c0-10.011,9.531-17.781,21.234-17.318l2600.308,102.984
					c8.63,0.342,15.645,7.605,15.645,16.189v1380.823c0,8.584-7.015,15.917-15.645,16.343L577.861,2477.317z"/>
			</g>
			<path style="opacity:0.6;fill:#FFFFFF;" d="M2906.708,2402.829c-218.762-135.322-65.964-520.077-311.641-713.394
				c-247.687-194.899-596.214,44.143-769.714-157.697c-129.186-150.288,21.975-331.755-101.377-473.093
				c-193.442-221.648-688.638,83.192-916.147-135.169c-32.302-31.003-64.899-78.038-83.45-153.5l-146.517-6.349
				c-56.228-2.436-102.228,34.79-102.228,82.995v1737.437c0,48.206,46,84.683,102.228,81.33l2600.308-155.018
				c41.281-2.461,74.707-37.809,74.707-78.808v-26.271C3080.215,2463.882,2974.663,2444.865,2906.708,2402.829z"/>
			<g style="opacity:0.8;">
				<g>
					<path style="fill:#F4F7FA;" d="M2049.625,1165.734v259.776c0,0-65.808,20.358-79.597,82.867l-88.537-0.212
						c-13.93-62.937-80.236-84.299-80.236-84.299v-263.012l55.767,1.087c-1.15,3.475-2.214,6.762-2.214,10.719
						c0,29.233,32.172,53.061,72.031,53.705c39.704,0.642,71.64-21.788,71.64-50.815c0-3.93-2.264-7.409-3.399-10.904
						L2049.625,1165.734z"/>
					<g>
						<polygon style="fill:#F4F7FA;" points="1799.929,1159.287 1709.67,1218.329 1754.898,1287.956 1825.573,1268.586 						"/>
						<polygon style="fill:#F4F7FA;" points="2051.739,1164.155 2139.046,1225.368 2095.486,1292.403 2026.656,1271.41 						"/>
					</g>
				</g>
				<g>
					<g>
						<g>
							<path style="fill:#FFFFFF;" d="M1496.115,1670.918l-723.821,3.881v-614.701l723.821,16.589V1670.918z M782.939,1663.708
								l695.435-3.395v-569.736l-695.435-15.479V1663.708z"/>
						</g>
						<g>
							<path style="fill:#FFFFFF;" d="M1496.115,2325.64l-723.821,26.435v-614.701l723.821-5.965V2325.64z M782.939,2340.608
								l695.435-25.099v-573.297l-695.435,6.108V2340.608z"/>
						</g>
						<g>
							<path style="fill:#FFFFFF;" d="M2262.513,1666.713l-663.502,3.608v-591.276l663.502,15.28V1666.713z M1609.656,1659.646
								l642.213-3.16v-548.688l-642.213-14.336V1659.646z"/>
						</g>
						<g>
							<path style="fill:#FFFFFF;" d="M2262.513,2297.368l-663.502,24.418V1730.51l663.502-5.53V2297.368z M1609.656,2310.758
								l642.213-23.28V1735.36l-642.213,5.675V2310.758z"/>
						</g>
						<g>
							<path style="fill:#FFFFFF;" d="M2979.238,1662.852l-620.925,3.381V1096.53l620.925,14.274V1662.852z M2372.506,1655.924
								l596.088-2.93v-529.185l-596.088-13.32V1655.924z"/>
						</g>
						<g>
							<path style="fill:#FFFFFF;" d="M2979.238,2271.096l-620.925,22.833v-569.703l620.925-5.178V2271.096z M2372.506,2283.175
								l596.088-21.618v-532.493l-596.088,5.266V2283.175z"/>
						</g>
					</g>
					<g>
						<path style="fill:#FFFFFF;" d="M1401.401,1596.341c0,15.79-13.848,28.635-30.956,28.69l-491.758,1.577
							c-17.947,0.058-32.517-13.035-32.517-29.242l0,0c0-16.208,14.571-29.354,32.517-29.363l491.758-0.238
							C1387.552,1567.757,1401.401,1580.551,1401.401,1596.341L1401.401,1596.341z"/>
					</g>
					<g>
						<path style="fill:#FFFFFF;" d="M2186.198,1594.893c0,15.2-12.832,27.564-28.684,27.615l-455.246,1.46
							c-16.599,0.053-30.075-12.539-30.075-28.126l0,0c0-15.587,13.476-28.229,30.075-28.237l455.246-0.22
							C2173.366,1567.376,2186.198,1579.693,2186.198,1594.893L2186.198,1594.893z"/>
					</g>
					<g>
						<path style="fill:#FFFFFF;" d="M2914.46,1593.549c0,14.653-11.924,26.569-26.654,26.617l-422.655,1.355
							c-15.398,0.049-27.897-12.08-27.897-27.091l0,0c0-15.011,12.5-27.187,27.897-27.194l422.655-0.205
							C2902.535,1567.024,2914.46,1578.896,2914.46,1593.549L2914.46,1593.549z"/>
					</g>
					<g>
						<path style="fill:#FFFFFF;" d="M1401.401,2232.487c0,15.79-13.848,29.055-30.956,29.628l-491.758,16.471
							c-17.947,0.601-32.517-12.05-32.517-28.258l0,0c0-16.208,14.571-29.795,32.517-30.347l491.758-15.133
							C1387.552,2204.323,1401.401,2216.697,1401.401,2232.487L1401.401,2232.487z"/>
					</g>
					<g>
						<path style="fill:#FFFFFF;" d="M2186.198,2207.269c0,15.2-12.832,27.952-28.684,28.483L1702.268,2251
							c-16.599,0.556-30.075-11.628-30.075-27.215l0,0c0-15.587,13.476-28.637,30.075-29.148l455.246-14.009
							C2173.366,2180.141,2186.198,2192.069,2186.198,2207.269L2186.198,2207.269z"/>
					</g>
					<g>
						<path style="fill:#FFFFFF;" d="M2914.46,2183.867c0,14.653-11.924,26.931-26.654,27.424l-422.655,14.157
							c-15.398,0.516-27.897-11.235-27.897-26.246l0,0c0-15.011,12.5-27.565,27.897-28.039l422.655-13.006
							C2902.535,2157.703,2914.46,2169.215,2914.46,2183.867L2914.46,2183.867z"/>
					</g>
					<g>
						<path style="fill:#FFFFFF;" d="M1620.3,970.081c0,19.449-17.357,34.768-38.22,34.213L821.06,984.1
							c-22.461-0.597-41.669-17.484-41.669-37.718v-0.315c0-20.234,18.967-36.09,41.428-35.417l760.903,22.782
							c20.864,0.625,38.579,16.898,38.579,36.347V970.081z"/>
					</g>
				</g>
				<g>
					<path style="fill:#F4F7FA;" d="M1999.951,1880.804c0-6.226-4.311-11.21-10.855-11.11l-115.594,1.778
						c-6.622,0.101-11.928,5.275-11.928,11.543v1.769c0,6.268,5.803,11.241,12.426,11.132l114.884-1.897
						c6.544-0.108,11.068-5.233,11.068-11.459V1880.804z"/>
					<g>
						<path style="fill:#F4F7FA;" d="M1925.278,1807.961c-5.419,0.066-9.809,6.153-9.809,12.327c0,8.119-4.57,15.898-11.344,18.539
							l-2.648,1.289c-9.781,3.814-16.66,14.064-17.424,25.775l0.298,7.238l51.733,2.006v-67.287L1925.278,1807.961z"/>
						<path style="fill:#F4F7FA;" d="M1937.589,1807.812c5.409-0.066,9.73,5.904,9.73,12.069c0,8.106,4.525,15.75,11.267,18.2
							l2.619,1.213c9.714,3.531,16.529,13.544,17.286,25.179l0.855,7.198l-50.359,3.579v-67.312L1937.589,1807.812z"/>
					</g>
					<path style="fill:#F4F7FA;" d="M1978.334,1890.708l-95.967,1.584c-20.872,0.34-38.534,15.447-38.534,35.223v10.908
						l33.246-0.629c3.089-0.057,5.783,0.975,5.783,3.898v1.512c0,2.922-2.694,5.011-5.783,5.069l-33.246,0.647v24.491l33.246-0.687
						c3.089-0.062,5.783,2.326,5.783,5.249v1.512c0,2.922-2.694,3.654-5.783,3.719l-33.246,0.705v24.491l33.246-0.745
						c3.089-0.068,5.783,3.677,5.783,6.6v1.512c0,2.922-2.694,5.791-5.783,5.86l-33.246,0.768v24.491l33.246-0.809
						c3.089-0.073,5.783,1.535,5.783,4.458v1.511c0,2.922-2.694,4.434-5.783,4.51l-33.246,0.826v24.491l33.246-0.867
						c3.089-0.079,5.783,2.886,5.783,5.809v1.512c0,2.922-2.694,6.571-5.783,6.651l-33.246,0.89v2.382
						c0,19.775,18.255,35.569,39.127,34.983l95.35-2.696c20.635-0.579,35.834-17.218,35.834-36.827v-169.298
						C2014.144,1904.798,1998.968,1890.372,1978.334,1890.708z"/>
				</g>
				<g>
					<g>
						<path style="fill:#F4F7FA;" d="M2705.206,1870.768c-6.565-4.603-15.763-3.026-20.544,3.527l-85.381,117.046
							c-4.825,6.614-3.357,15.693,3.276,20.273l2.443,1.687c6.627,4.576,15.899,2.923,20.71-3.687l85.154-116.969
							c4.768-6.549,3.318-15.583-3.241-20.182L2705.206,1870.768z"/>
					</g>
					<g>
						<g>
							<path style="fill:#F4F7FA;" d="M2585.355,1901.201c-3.228,4.407-0.749,11.519,4.581,15.222
								c7.003,4.866,10.882,13.163,9.055,20.19l-0.521,2.881c-2.635,10.14,2.013,21.773,11.625,29.366l6.406,4.015l33.039-40.378
								l-57.693-40.16L2585.355,1901.201z"/>
						</g>
						<g>
							<path style="fill:#F4F7FA;" d="M2592.618,1891.285c3.224-4.402,10.922-4.425,16.241-0.718c6.99,4.87,16.282,5.75,22.483,1.79
								l2.615-1.414c8.936-5.706,21.675-5.197,32.133,1.179l6.194,4.27l-27.965,43.267l-57.723-40.15L2592.618,1891.285z"/>
						</g>
					</g>
					<g>
						<path style="fill:#F4F7FA;" d="M2607.995,1874.841c12.826,8.947,15.651,26.536,6.315,39.307
							c-9.344,12.783-27.347,15.922-40.217,6.989c-12.887-8.944-15.729-26.587-6.341-39.384
							C2577.132,1868.967,2595.152,1865.882,2607.995,1874.841z"/>
					</g>
					<g>
						<path style="fill:#F4F7FA;" d="M2778.88,2028.654c-25.674,35.567-75.478,44.628-111.073,20.037
							c-35.726-24.682-43.674-73.927-17.662-109.61c25.944-35.589,75.884-44.232,111.272-19.434
							C2796.676,1944.353,2804.487,1993.18,2778.88,2028.654z M2669.244,1952.37c-18.294,25.131-12.705,59.802,12.429,77.203
							c25.071,17.357,60.192,11.011,78.318-14.062c18.092-25.027,12.573-59.489-12.331-76.903
							C2722.694,1921.15,2687.504,1927.286,2669.244,1952.37z"/>
					</g>
				</g>
				<g>
					<g>
						<polygon style="fill:#F4F7FA;" points="1052.597,1942.163 921.316,1944.513 921.316,1959.136 1052.597,1956.697 						"/>
						<path style="fill:#F4F7FA;" d="M1086.727,2046.71l-34.13,0.821v-72.667l-131.281,2.552v74.859v53.547v3.203l0.608-0.026
							c1.952,25.537,24.168,43.191,51.944,42.422l112.723-3.154c28.669-0.794,51.161-21.941,51.161-48.04v-5.744
							C1137.753,2068.384,1115.397,2046.052,1086.727,2046.71z"/>
					</g>
					<g>
						<polygon style="fill:#F4F7FA;" points="1251.293,1819.784 1120.012,1821.39 1120.012,1835.877 1251.293,1834.183 						"/>
						<path style="fill:#F4F7FA;" d="M1281.443,1927.24l-30.149,0.533v-75.592l-131.281,1.805v74.516v53.048v2.818l-1.199,0.033
							c1.916,25.313,24.112,42.935,51.379,42.333l110.482-2.442c28.15-0.622,48.678-21.033,48.678-46.897v-5.692
							C1329.352,1945.838,1309.592,1926.748,1281.443,1927.24z"/>
					</g>
				</g>
				<g>
					<g>
						<g>
							<path style="fill:#F4F7FA;" d="M2745.061,1309.586c0,20.294-15.856,36.567-36.448,36.346l-92.417-0.999
								c-20.828-0.224-37.897-17.004-37.897-37.47v-91.178c0-20.466,17.472-36.729,38.3-36.332l91.735,1.763
								c20.591,0.393,36.728,17.164,36.728,37.458V1309.586z M2734.416,1217.004c0-15.504-11.685-28.311-27.414-28.606
								l-92.871-1.748c-15.902-0.298-28.737,12.117-28.737,27.738v91.803c0,15.621,13.359,28.439,29.261,28.618l92.12,1.052
								c15.729,0.177,27.641-12.242,27.641-27.745V1217.004z"/>
						</g>
						<g>
							<path style="fill:#F4F7FA;" d="M2665.413,1232.015c-1.163,4.421-4.494,15.97-9.998,32.686l20.144,0.299
								c-5.178-16.866-8.095-25.752-8.744-27.913C2666.16,1234.924,2665.695,1233.268,2665.413,1232.015z"/>
							<path style="fill:#F4F7FA;" d="M2730.868,1216.786c0-9.906-8.704-18.086-18.75-18.27l-95.406-1.693
								c-10.151-0.185-20.674,7.753-20.674,17.724v91.952c0,9.971,10.239,18.143,20.39,18.262l94.691,1.094
								c10.046,0.118,19.748-7.818,19.748-17.723V1216.786z M2685.061,1295.339l-5.594-16.856l-28.181-0.399l-5.614,16.731
								l-17.708-0.235l27.346-73.567l20.035,0.342l27.322,74.219L2685.061,1295.339z"/>
						</g>
					</g>
					<g>
						<g>
							<g>
								<path style="fill:#F4F7FA;" d="M2659.905,1479.826c0,20.385-17.627,36.878-38.405,36.835l-93.456-0.181
									c-21.018-0.043-38.45-16.734-38.45-37.294v-91.597c0-20.56,17.023-37.057,38.041-36.839l93.891,0.963
									c20.778,0.216,38.378,16.911,38.378,37.296V1479.826z M2649.261,1390.279c0-15.573-13.467-28.325-29.337-28.482
									l-93.971-0.922c-16.048-0.159-29.262,12.441-29.262,28.134v92.226c0,15.693,12.904,28.437,28.952,28.476l94.345,0.222
									c15.871,0.038,29.273-12.56,29.273-28.133V1390.279z"/>
							</g>
							<g>
								<path style="fill:#F4F7FA;" d="M2645.712,1386.759c0-9.95-10.475-18.096-20.611-18.193l-94.813-0.894
									c-10.243-0.098-19.405,7.946-19.405,17.963V1478c0,10.016,8.029,18.156,18.272,18.188l96.088,0.289
									c10.136,0.031,20.469-8.01,20.469-17.961V1386.759z M2598.061,1462.852c-5.129,3.875-11.332,6.525-20.147,6.486
									l-28.001-0.131v-77.709l23.091,0.202c11.06,0.093,18.695,1.56,23.683,4.682c4.985,3.121,7.285,7.967,7.285,14.682
									c0,4.56-0.843,8.25-3.024,11.158c-2.184,2.909-8.458,4.65-8.458,5.171v0.523c0,1.149,8.147,3.16,10.331,6.131
									c2.18,2.972,3.098,7.281,3.098,12.187C2605.919,1453.194,2603.188,1458.979,2598.061,1462.852z"/>
								<path style="fill:#F4F7FA;" d="M2573.982,1435.582l-9.877-0.062v16.878l10.413,0.057c4.55,0.024,8.29,0.2,10.457-1.495
									c2.167-1.695,3.061-3.285,3.061-6.802C2588.036,1437.821,2583.227,1435.639,2573.982,1435.582z"/>
								<path style="fill:#F4F7FA;" d="M2583.838,1419.923c2.008-1.345,3.011-3.681,3.011-6.815c0-2.925-1.091-4.828-3.276-6.117
									c-2.188-1.287-6.409-1.752-11.137-1.788l-8.33-0.064v16.878l9.236,0.064
									C2577.822,1422.112,2581.83,1421.266,2583.838,1419.923z"/>
							</g>
						</g>
						<g>
							<g>
								<path style="fill:#F4F7FA;" d="M2833.764,1480.521c0,20.203-16.255,36.549-36.663,36.507l-90.292-0.194
									c-20.642-0.043-36.26-16.599-36.26-36.973v-90.769c0-20.374,15.746-36.712,36.388-36.497l90.672,0.952
									c20.408,0.212,36.155,16.763,36.155,36.966V1480.521z M2826.668,1391.8c0-15.432-12.164-28.067-27.748-28.221l-90.633-0.918
									c-15.754-0.156-27.094,12.315-27.094,27.864v91.376c0,15.548,11.564,28.192,27.319,28.23l91.019,0.227
									c15.583,0.037,27.136-12.437,27.136-27.869V1391.8z"/>
							</g>
							<path style="fill:#F4F7FA;" d="M2816.023,1388.286c0-9.862-7.329-17.936-17.285-18.031l-90.484-0.892
								c-10.06-0.096-16.416,7.862-16.416,17.788v91.532c0,9.926,6.724,18.009,16.784,18.04l90.833,0.295
								c9.956,0.031,16.568-7.929,16.568-17.791V1388.286z M2763.835,1456.374c5.37,0.028,16.707-1.258,20.255-3.898v13.449
								c-3.548,2.573-14.028,3.836-21.775,3.801c-11.14-0.05-20.042-3.424-25.953-10.139c-5.916-6.72-9.06-16.336-9.06-28.854
								c0-7.885,1.358-14.779,4.265-20.688c2.906-5.906,7.031-10.418,12.472-13.535c5.438-3.116,11.781-4.642,19.075-4.581
								c7.432,0.063,14.88,1.903,22.368,5.516l-5.229,12.994c-2.858-1.366-5.737-2.561-8.632-3.583
								c-2.895-1.024-5.735-1.546-8.529-1.567c-6.111-0.047-10.841,2.188-14.194,6.704c-3.36,4.518-4.666,10.829-4.666,18.948
								C2744.232,1447.834,2751.021,1456.307,2763.835,1456.374z"/>
						</g>
					</g>
				</g>
				<g>
					<polygon style="fill:#F4F7FA;" points="1215.228,1454.14 1201.816,1463.704 1102.558,1347.131 1116.097,1337.596 					"/>
					<g>
						<path style="fill:#F4F7FA;" d="M1235.347,1490.438c-11.069,7.919-27.147,6.08-35.836-4.114
							c-8.696-10.203-6.735-24.953,4.366-32.865c11.09-7.904,27.158-6.028,35.821,4.168
							C1248.354,1467.814,1246.404,1482.527,1235.347,1490.438z M1210,1460.654c-6.782,4.837-7.979,13.849-2.668,20.085
							c5.309,6.233,15.137,7.362,21.907,2.522c6.766-4.837,7.958-13.836,2.662-20.066
							C1226.601,1456.962,1216.778,1455.82,1210,1460.654z"/>
					</g>
					<g>
						<path style="fill:#F4F7FA;" d="M1129.27,1248.693c-30.174-26.704-73.493-28.071-105.574-5.716
							c-32.179,22.423-41.917,60.936-20.985,94.378L1129.27,1248.693z"/>
						<path style="fill:#F4F7FA;" d="M1028.623,1363.203c27.567,16.585,67.119,17.724,95.458-2.274
							c28.262-19.943,36.816-54.885,26.09-83.127L1028.623,1363.203z"/>
					</g>
					<path style="fill:#F4F7FA;" d="M1149.294,1259.804c2.337,2.761,1.085,5.92-1.954,8.053l-127.848,89.756
						c-3.077,2.16-6.3,2.129-8.668-0.639l-5.458-6.381c-2.37-2.77-1.792-5.833,1.289-7.992l128.001-89.72
						c3.043-2.133,6.912-2.204,9.251,0.559L1149.294,1259.804z"/>
				</g>
			</g>
		</g>
		<g>
			<g>
				<g>
					
						<linearGradient id="SVGID_00000044894029597385668730000009743790604459359162_" gradientUnits="userSpaceOnUse" x1="2068.843" y1="1530.9039" x2="2028.8116" y2="1595.6606">
						<stop  offset="0" style="stop-color:#FFC444"/>
						<stop  offset="0.9964" style="stop-color:#F36F56"/>
					</linearGradient>
					<path style="fill:url(#SVGID_00000044894029597385668730000009743790604459359162_);" d="M2066.744,1596.986
						c4.065-6.299,11.481-19.703,11.955-37.703c0.921-34.977-25.021-62.259-28.509-60.693c-1.878,0.845,0.505,11.093,1.84,15.633
						c2.779,9.457,5.768,10.37,5.518,14.713c-0.515,8.941-13.422,9.287-20.23,21.151c-4.902,8.544-5.295,20.715,0,30.346
						C2046.101,1596.412,2065.908,1596.975,2066.744,1596.986z"/>
					
						<linearGradient id="SVGID_00000077303669453095054060000017075632801410986158_" gradientUnits="userSpaceOnUse" x1="2639.0422" y1="2297.3462" x2="2655.2073" y2="2330.5869">
						<stop  offset="0" style="stop-color:#FFC444"/>
						<stop  offset="0.9964" style="stop-color:#F36F56"/>
					</linearGradient>
					<polygon style="fill:url(#SVGID_00000077303669453095054060000017075632801410986158_);" points="2620.896,2356.691 
						2610.925,2322.379 2652.553,2291.532 2678.502,2281.83 2663.139,2329.838 					"/>
					
						<linearGradient id="SVGID_00000129928382764990694340000009388077963642901154_" gradientUnits="userSpaceOnUse" x1="1348.324" y1="3143.8494" x2="1348.324" y2="3039.5659" gradientTransform="matrix(1 0 0 1 1249.563 0)">
						<stop  offset="0" style="stop-color:#FFC444"/>
						<stop  offset="0.9964" style="stop-color:#F36F56"/>
					</linearGradient>
					<path style="fill:url(#SVGID_00000129928382764990694340000009388077963642901154_);" d="M2569.366,3047.743
						c0,0,22.77,57.281,16.778,82.685c24.447-0.479,40.263-3.594,40.263-3.594s-9.826-26.124-11.742-39.066
						c-2.591-17.486-2.398-45.777-2.398-45.777L2569.366,3047.743z"/>
					<path style="fill:#26264F;" d="M2318.375,3181.718c1.473,1.777,4.085,5.491,4.305,10.522c0.119,2.733-0.506,4.983-1.292,7.051
						c-3.882,10.216-9.979,11.563-16.56,22.404c-4.02,6.624-3.261,8.621-6.944,11.611c-4.855,3.941-10.728,4.166-15.818,4.224
						c-8.602,0.099-20.987-0.208-36.58-2.066c8.172-10.532,16.861-21.231,26.103-32.033c4.054-4.737,8.1-9.364,12.135-13.88
						l24.026-8.117C2311.292,3181.528,2314.834,3181.623,2318.375,3181.718z"/>
					
						<linearGradient id="SVGID_00000119831675580333465220000004820483642276759465_" gradientUnits="userSpaceOnUse" x1="1030.4675" y1="3173.5693" x2="1030.4675" y2="3047.8914" gradientTransform="matrix(1 0 0 1 1249.563 0)">
						<stop  offset="0" style="stop-color:#FFC444"/>
						<stop  offset="0.9964" style="stop-color:#F36F56"/>
					</linearGradient>
					<path style="fill:url(#SVGID_00000119831675580333465220000004820483642276759465_);" d="M2298.396,3065.071
						c0,0-13.733,71.656,3.742,91.721c14.886,20.064-7.19,5.752-7.19,5.752l-26.364,23.008l-15.817,27.323
						c0,0,14.56-70.134,10.676-97.966c-3.883-27.831-5.824-46.601-5.824-46.601L2298.396,3065.071z"/>
					
						<linearGradient id="SVGID_00000057123221699858374030000008442394373309095863_" gradientUnits="userSpaceOnUse" x1="960.1588" y1="2679.8845" x2="1371.3325" y2="2679.8845" gradientTransform="matrix(1 0 0 1 1249.563 0)">
						<stop  offset="0" style="stop-color:#311944"/>
						<stop  offset="1" style="stop-color:#893976"/>
					</linearGradient>
					<path style="fill:url(#SVGID_00000057123221699858374030000008442394373309095863_);" d="M2246.615,2281.25
						c0,0-36.893,33.01-36.893,168.932s17.476,431.068,17.476,431.068l27.965,211.309c0,0,28.996,1.033,48.412-4.792
						c17.475-79.612,45.953-214.284,32.36-326.904c-5.825-122.332,48.544-275.729,48.544-275.729s46.602,155.341,79.612,233.011
						c33.011,77.669,95.856,320.99,101.681,338.467c38.626,3.501,55.123-6.712,55.123-6.712s-24.766-261.852-48.066-360.881
						c-23.3-99.03-21.36-337.865-60.195-405.826C2425.256,2248.241,2246.615,2281.25,2246.615,2281.25z"/>
					
						<linearGradient id="SVGID_00000134222058952156603480000016250216251255325355_" gradientUnits="userSpaceOnUse" x1="947.0906" y1="2373.3757" x2="1243.3193" y2="2870.926" gradientTransform="matrix(1 0 0 1 1249.563 0)">
						<stop  offset="0" style="stop-color:#311944"/>
						<stop  offset="1" style="stop-color:#893976"/>
					</linearGradient>
					<path style="fill:url(#SVGID_00000134222058952156603480000016250216251255325355_);" d="M2246.616,2281.25
						c0,0-36.895,33.01-36.895,168.932s17.477,431.068,17.477,431.068l27.965,211.309c0,0,28.996,1.033,48.412-4.792
						c17.476-79.612,45.953-214.284,32.361-326.904c-5.825-122.332,48.543-275.729,48.543-275.729s46.602,155.341,79.612,233.011
						c33.011,77.669,95.858,320.991,101.682,338.467c38.624,3.501,55.122-6.712,55.122-6.712s-24.766-261.852-48.066-360.881
						c-23.302-99.03-21.36-337.865-60.194-405.827C2425.257,2248.241,2246.616,2281.25,2246.616,2281.25z"/>
					
						<linearGradient id="SVGID_00000011736341702532966360000002386918941476041369_" gradientUnits="userSpaceOnUse" x1="1063.7074" y1="2303.9451" x2="1359.9362" y2="2801.4951" gradientTransform="matrix(1 0 0 1 1249.563 0)">
						<stop  offset="0" style="stop-color:#311944"/>
						<stop  offset="1" style="stop-color:#893976"/>
					</linearGradient>
					<path style="opacity:0.25;fill:url(#SVGID_00000011736341702532966360000002386918941476041369_);" d="M2438.269,2530.3
						c11.503,74.776,34.511,115.042,92.032,166.809c46.015,34.512,11.504,109.29,28.761,166.809
						c5.751,17.256,23.008,34.512,28.759,51.768c21.405,42.81,1.412,95.173,11.118,140.501c15.103-2.086,21.956-6.287,21.956-6.287
						s-24.766-261.852-48.066-360.881c-23.302-99.03-21.36-337.865-60.194-405.827c-87.378-34.95-266.019-1.941-266.019-1.941
						s-36.895,33.01-36.895,168.932c0,11.028,0.117,23.118,0.329,36c38.302,33.896,116.635,41.427,164.948,3.854
						c2.918-2.19,6.023-3.531,9.231-4.182c0.149-0.43,0.251-0.721,0.251-0.721s0.081,0.269,0.203,0.673
						C2406.67,2481.795,2433.281,2510.347,2438.269,2530.3z"/>
					<g>
						<path style="fill:#26264F;" d="M2580.155,3152.165c0,0-5.675,0-5.202,7.331c0.474,7.33-2.556,32.544,26.29,33.726
							c28.847,1.182,33.295-2.043,34.241-2.043s-7.567-24.119-7.567-24.119l-9.222-11.821l-24.827-2.601L2580.155,3152.165z"/>
						<path style="fill:#444B8C;" d="M2644.115,3177.475c-0.615-6.089-4.022-15.674-7.45-23.387
							c-5.093-11.458-0.912-15.746-5.779-26.181c-1.683-3.609-3.32-7.03-6.875-10.421c-0.819-0.78-8.778-8.135-20.37-7.761
							c-2.281,0.073-5.793,0.227-9.589,2.249c-4.472,2.384-6.714,5.964-8.627,9.107c-3.008,4.941-2.317,6.456-6.95,20.612
							c-0.373,1.135-1.188,3.606-1.815,7.014c-0.48,2.608-0.675,4.798-0.761,6.295c7.567,0,36.65,1.183,42.796,5.676
							c6.149,4.492,9.222,12.059,9.222,19.625c0,7.565,3.783,11.112,7.567,10.875
							C2638.864,3190.968,2645.578,3184.708,2644.115,3177.475z"/>
					</g>
					<path style="fill:#444B8C;" d="M2294.707,3146.726c6.499,0.102,11.265,5.272,14.86,17.734
						c3.595,12.464,20.851,23.489,0.72,20.851c-20.133-2.635-34.753,25.884-41.942,36.431c-7.191,10.544-26.492,19.914-26.012,9.608
						c0.478-10.305,8.995-15.121,11.392-25.667C2256.121,3195.139,2279.887,3146.494,2294.707,3146.726z"/>
					
						<linearGradient id="SVGID_00000160913020191155983840000001306275649536620467_" gradientUnits="userSpaceOnUse" x1="-199.1454" y1="-3270.6013" x2="114.5772" y2="-2625.481" gradientTransform="matrix(-0.9906 -0.1367 0.1367 -0.9906 2791.3203 -1269.0822)">
						<stop  offset="0" style="stop-color:#FFC444"/>
						<stop  offset="0.9964" style="stop-color:#F36F56"/>
					</linearGradient>
					<path style="fill:url(#SVGID_00000160913020191155983840000001306275649536620467_);" d="M2636.173,2297.656
						c4.778-13.282,34.594-100.531-13.596-180.101c-39.45-65.138-107.715-86.389-117.448-89.264
						c-59.252-17.498-88.948,4.981-107.643-15.707c-31.724-35.109,4.212-154.698,73.723-178.651
						c78.355-27,172.351,76.824,210.442,145.018c49.972,89.468,37.673,178.388,34.781,196.702
						c-7.514,47.59-24.983,83.889-37.929,106.177C2664.393,2287.105,2650.283,2292.381,2636.173,2297.656z"/>
					
						<linearGradient id="SVGID_00000000181187252827839670000018411395586833477257_" gradientUnits="userSpaceOnUse" x1="2251.05" y1="1838.9371" x2="2568.7822" y2="2492.3022">
						<stop  offset="0" style="stop-color:#FFC444"/>
						<stop  offset="0.9964" style="stop-color:#F36F56"/>
					</linearGradient>
					<path style="fill:url(#SVGID_00000000181187252827839670000018411395586833477257_);" d="M2431.559,1817.051
						c-69.941-2.797-123.879-1.688-154.347,28.759c-32.181,32.16,0.34,68.467-6.647,152.592
						c-10.698,128.793-92.769,160.261-98.944,290.923c-2.081,44.026,5.369,80.009,11.156,101.678
						c18.011,22.432,47.492,54.088,91,80.558c63.312,38.52,100.027,31.803,190.953,56.688
						c148.727,40.703,161.958,89.177,235.706,76.828c74.532-12.481,139.924-75.204,132.026-109.648
						c-4.732-20.627-34.776-14.784-69.369-46.246c-44.584-40.548-27.39-79.252-61.288-122.825
						c-48.688-62.586-116.518-24.327-158.009-78.569c-41.97-54.871-25.323-162.993,10.055-221.929
						c23.108-38.495,33.004-83.606,52.667-123.968c1.635-3.353,3.531-8.852,2.695-15.727c-3.192-26.287-47.01-40.546-80.198-51.005
						C2478.395,1819.207,2437.311,1817.279,2431.559,1817.051z"/>
					
						<linearGradient id="SVGID_00000080908876908312940430000000048927676978757010_" gradientUnits="userSpaceOnUse" x1="1139.8647" y1="1757.1879" x2="1200.5844" y2="1853.6974" gradientTransform="matrix(1 0 0 1 1249.563 0)">
						<stop  offset="0" style="stop-color:#FFC444"/>
						<stop  offset="0.9964" style="stop-color:#F36F56"/>
					</linearGradient>
					<path style="fill:url(#SVGID_00000080908876908312940430000000048927676978757010_);" d="M2372.647,1814.159l13.795-4.245
						c0,0,3.607,18.675,47.96,21.009c24.616,0,40.532-13.793,40.532-13.793l9.425,6.871c0,0-20.678,25.83-53.565,25.173
						C2388.352,1848.325,2372.647,1814.159,2372.647,1814.159z"/>
					<g>
						
							<linearGradient id="SVGID_00000121272490613647433540000011618702320015274932_" gradientUnits="userSpaceOnUse" x1="1213.1693" y1="1742.3812" x2="1146.438" y2="1850.3287" gradientTransform="matrix(1 0 0 1 1249.563 0)">
							<stop  offset="0" style="stop-color:#FFC444"/>
							<stop  offset="0.9964" style="stop-color:#F36F56"/>
						</linearGradient>
						<path style="fill:url(#SVGID_00000121272490613647433540000011618702320015274932_);" d="M2400.735,1757.35
							c2.658-20.512,18.873-33.653,22.412-36.466c14.813-11.775,17.828-12.961,22.917-13.928l6.948-1.053
							c0,0,0.374,0.01,0.759,0.033c4.068,0.246,16.259,5.005,18.476,6.563c7.081,4.98,1.866,40.243-19.599,84.101
							c-0.844,3.714-1.688,7.429-2.532,11.142c18.71,3.289,23.343,6.664,23.49,9.359c0.319,5.838-20.166,13.285-39.151,13.77
							c-23.808,0.607-49.086-9.635-48.603-17.28c0.197-3.095,4.688-6.912,21.973-10.66c2.703-3.798,5.403-7.597,8.104-11.395
							C2413.477,1788.562,2398.777,1772.46,2400.735,1757.35z"/>
						
							<linearGradient id="SVGID_00000116924541919197226370000006429709942856135609_" gradientUnits="userSpaceOnUse" x1="621.7881" y1="1270.0349" x2="557.2113" y2="1374.4974" gradientTransform="matrix(0.9717 -0.2361 0.2361 0.9717 1534.775 640.4756)">
							<stop  offset="0" style="stop-color:#FFC444"/>
							<stop  offset="0.9964" style="stop-color:#F36F56"/>
						</linearGradient>
						<path style="fill:url(#SVGID_00000116924541919197226370000006429709942856135609_);" d="M2430.166,1749.627
							c5.399-3.232,9.513,3.715,6.969,9.786c-2.543,6.072-11.09,9.871-16.275,6.251
							C2415.676,1762.045,2422.9,1753.975,2430.166,1749.627z"/>
						
							<linearGradient id="SVGID_00000061465158759570813490000007651494256287260587_" gradientUnits="userSpaceOnUse" x1="2419.2749" y1="1281.3103" x2="2978.5332" y2="2170.2124">
							<stop  offset="0" style="stop-color:#444B8C"/>
							<stop  offset="0.9964" style="stop-color:#26264F"/>
						</linearGradient>
						<path style="fill:url(#SVGID_00000061465158759570813490000007651494256287260587_);" d="M3130.075,1749.524
							c-71.081-77.132-236.466-55.979-328.199,5.967c-42.625,28.785-64.502,62.785-114.869,65.64
							c-38.289,2.169-99.2-12.227-131.279-53.705c-4.041-5.226-20.206-27.141-44.478-54.778
							c-10.701-12.183-21.342-23.617-37.837-26.203c-4.191-0.657-18.131-2.926-27.348,6.078c-7.469,7.295-9.3,19.979-7.092,29.121
							c1.322,5.467,3.03,6.043,2.787,9.622c-0.684,10.055-18.999,14.435-17.98,19.499c0.727,3.618,10.26,2.294,11.902,6.837
							c1.799,4.977-8.67,9.26-13.168,21.777c-8.426,5.641-13.751,19.679-15.593,38.463c-2.708,27.612,0.066,50.048,5.299,66.946
							c25.191,81.358,43.212,139.551,86.819,172.048c57.737,43.024,109.725,3.3,256.592-2.983
							c201.105-8.603,251.246,59.565,323.525,12.931C3169.407,2008.556,3203.874,1829.606,3130.075,1749.524z"/>
					</g>
					
						<linearGradient id="SVGID_00000102515350594750207690000009396507285741535142_" gradientUnits="userSpaceOnUse" x1="2215.6895" y1="1854.1699" x2="2528.1882" y2="2496.7737">
						<stop  offset="0" style="stop-color:#FFC444"/>
						<stop  offset="0.9964" style="stop-color:#F36F56"/>
					</linearGradient>
					<path style="fill:url(#SVGID_00000102515350594750207690000009396507285741535142_);" d="M2075.242,1592.086
						c-1.794,16.827-7.859,91.264,43.486,154.115c47.975,58.727,115.92,70.457,128.549,72.366
						c61.089,9.231,87.434-17.097,108.781,0.843c36.226,30.441,16.978,153.819-48.604,187.053
						c-73.926,37.461-181.237-52.538-228.292-114.884c-61.737-81.794-61.71-171.561-61.349-190.098
						c0.935-48.17,13.278-86.518,23.053-110.365c4.016-1.21,10.128-2.548,17.623-2.287
						C2065.63,1589.077,2071.393,1590.686,2075.242,1592.086z"/>
					
						<linearGradient id="SVGID_00000022544914957430951610000008293822339482728616_" gradientUnits="userSpaceOnUse" x1="2205.1641" y1="1861.2524" x2="2522.8955" y2="2514.6162">
						<stop  offset="0" style="stop-color:#FFC444"/>
						<stop  offset="0.9964" style="stop-color:#F36F56"/>
					</linearGradient>
					<path style="opacity:0.3;fill:url(#SVGID_00000022544914957430951610000008293822339482728616_);" d="M2702.671,2555.847
						c-17.884-18.335,1.802-55.308-24.615-82.795c-24.517-25.512-52.276-4.902-91.747-26.852
						c-50.624-28.156-36.674-79.7-85.032-107.411c-34.774-19.927-51.116,1.498-105.174-8.951
						c-53.967-10.43-119.696-47.635-152.164-114.123c-13.796-28.251-18.882-56.337-19.556-81.442
						c-24.271,43.365-49.448,84.921-52.763,155.052c-2.081,44.026,5.369,80.009,11.156,101.678
						c18.011,22.432,47.492,54.088,91,80.557c63.312,38.52,100.027,31.804,190.953,56.689
						c148.727,40.703,161.958,89.177,235.706,76.828c47.634-7.976,91.432-36.474,114.852-64.996
						C2746.552,2570.678,2715.65,2569.155,2702.671,2555.847z"/>
				</g>
			</g>
		</g>
		<g>
			<g>
				<g>
					
						<linearGradient id="SVGID_00000008870150294474995540000009996631089339342772_" gradientUnits="userSpaceOnUse" x1="1067.6921" y1="3202.9463" x2="1084.4825" y2="3217.0654">
						<stop  offset="0" style="stop-color:#AA80F9"/>
						<stop  offset="0.9964" style="stop-color:#6165D7"/>
					</linearGradient>
					<path style="fill:url(#SVGID_00000008870150294474995540000009996631089339342772_);" d="M1130.824,3230.514
						c0,22.049-13.587,39.922-30.349,39.922c-16.761,0-30.348-17.873-30.348-39.922c0-22.048,13.588-39.922,30.348-39.922
						C1117.237,3190.592,1130.824,3208.466,1130.824,3230.514z"/>
					
						<linearGradient id="SVGID_00000114766063587599540170000002805595764051541894_" gradientUnits="userSpaceOnUse" x1="1078.5807" y1="3230.8901" x2="1139.278" y2="3230.8901">
						<stop  offset="0" style="stop-color:#AA80F9"/>
						<stop  offset="0.9964" style="stop-color:#6165D7"/>
					</linearGradient>
					<path style="fill:url(#SVGID_00000114766063587599540170000002805595764051541894_);" d="M1139.278,3230.89
						c0,22.049-13.587,39.923-30.348,39.923c-16.761,0-30.349-17.873-30.349-39.923c0-22.048,13.588-39.922,30.349-39.922
						C1125.691,3190.968,1139.278,3208.842,1139.278,3230.89z"/>
					
						<linearGradient id="SVGID_00000054950828957761685730000008754513218929989787_" gradientUnits="userSpaceOnUse" x1="1096.2096" y1="3231.6941" x2="1121.6436" y2="3231.6941">
						<stop  offset="0" style="stop-color:#40447E"/>
						<stop  offset="0.9964" style="stop-color:#3C3B6B"/>
					</linearGradient>
					<path style="fill:url(#SVGID_00000054950828957761685730000008754513218929989787_);" d="M1121.644,3231.694
						c0,9.239-5.694,16.729-12.717,16.729c-7.023,0-12.717-7.49-12.717-16.729c0-9.238,5.694-16.728,12.717-16.728
						C1115.95,3214.966,1121.644,3222.456,1121.644,3231.694z"/>
				</g>
				<path style="fill:#C9CED6;" d="M1100.475,3182.161v43.837c0,6.437,5.218,11.655,11.655,11.655l0,0
					c3.72,0,7.218-1.776,9.411-4.781l39.427-53.987L1100.475,3182.161z"/>
			</g>
			<g>
				<g>
					
						<linearGradient id="SVGID_00000166668014184285607760000007808862573565321860_" gradientUnits="userSpaceOnUse" x1="1392.6117" y1="3167.9387" x2="1409.4021" y2="3182.0579">
						<stop  offset="0" style="stop-color:#AA80F9"/>
						<stop  offset="0.9964" style="stop-color:#6165D7"/>
					</linearGradient>
					<path style="fill:url(#SVGID_00000166668014184285607760000007808862573565321860_);" d="M1455.744,3195.506
						c0,22.049-13.588,39.923-30.349,39.923c-16.761,0-30.348-17.874-30.348-39.923c0-22.047,13.588-39.922,30.348-39.922
						C1442.156,3155.584,1455.744,3173.459,1455.744,3195.506z"/>
					
						<linearGradient id="SVGID_00000047762438883677010440000007176444881011599258_" gradientUnits="userSpaceOnUse" x1="1403.5011" y1="3195.8833" x2="1464.1984" y2="3195.8833">
						<stop  offset="0" style="stop-color:#AA80F9"/>
						<stop  offset="0.9964" style="stop-color:#6165D7"/>
					</linearGradient>
					<path style="fill:url(#SVGID_00000047762438883677010440000007176444881011599258_);" d="M1464.198,3195.883
						c0,22.048-13.588,39.923-30.348,39.923c-16.761,0-30.349-17.875-30.349-39.923s13.588-39.922,30.349-39.922
						C1450.611,3155.96,1464.198,3173.834,1464.198,3195.883z"/>
					
						<linearGradient id="SVGID_00000101784408368407968820000006062177482448774789_" gradientUnits="userSpaceOnUse" x1="1421.13" y1="3196.687" x2="1446.5631" y2="3196.687">
						<stop  offset="0" style="stop-color:#40447E"/>
						<stop  offset="0.9964" style="stop-color:#3C3B6B"/>
					</linearGradient>
					<path style="fill:url(#SVGID_00000101784408368407968820000006062177482448774789_);" d="M1446.563,3196.687
						c0,9.239-5.693,16.729-12.717,16.729c-7.022,0-12.716-7.49-12.716-16.729c0-9.239,5.694-16.728,12.716-16.728
						C1440.87,3179.958,1446.563,3187.448,1446.563,3196.687z"/>
				</g>
				<path style="fill:#C9CED6;" d="M1425.395,3147.153v43.839c0,6.436,5.218,11.654,11.655,11.654l0,0
					c3.721,0,7.217-1.776,9.412-4.781l39.426-53.988L1425.395,3147.153z"/>
			</g>
			<path style="fill:#C9CED6;" d="M1095.943,3188.973c-3.995,0-7.438-3.004-7.896-7.069c-0.494-4.368,2.65-8.304,7.018-8.798
				l384.784-43.36c20.942-3.602,38.405-19.519,44.04-40.484l150.856-657.934c8.584-31.955,36.528-54.948,69.532-57.221
				l117.042-6.979c4.399-0.303,8.157,3.082,8.417,7.469c0.264,4.387-3.082,8.157-7.469,8.417l-116.969,6.975
				c-26.157,1.803-48.361,20.075-55.181,45.466l-150.856,657.934c-7.24,26.946-29.685,47.398-57.179,52.111l-385.239,43.422
				C1096.542,3188.958,1096.242,3188.973,1095.943,3188.973z"/>
			<path style="fill:#C2C2C2;" d="M1353.318,2894.908c-3.462,0-6.649-2.281-7.648-5.775l-90.61-317.059
				c-1.208-4.228,1.24-8.631,5.464-9.839c4.22-1.205,8.631,1.243,9.839,5.464l90.61,317.059c1.208,4.228-1.24,8.631-5.464,9.839
				C1354.779,2894.807,1354.041,2894.908,1353.318,2894.908z"/>
			<path style="fill:#C2C2C2;" d="M1446.015,2881.649c-3.785,0-7.142-2.708-7.826-6.563l-55.889-314.07
				c-0.769-4.329,2.114-8.46,6.439-9.229c4.368-0.789,8.464,2.114,9.229,6.439l55.888,314.071c0.77,4.329-2.114,8.46-6.439,9.229
				C1446.943,2881.61,1446.477,2881.649,1446.015,2881.649z"/>
			<path style="fill:#C2C2C2;" d="M1503.609,2871.355c-0.109,0-0.222-0.004-0.334-0.008c-4.391-0.183-7.803-3.89-7.62-8.281
				l12.898-310.748c0.179-4.391,3.696-7.877,8.281-7.621c4.391,0.183,7.803,3.89,7.62,8.281l-12.898,310.748
				C1511.381,2868.006,1507.853,2871.355,1503.609,2871.355z"/>
			<path style="fill:#C9CED6;" d="M1226.883,2906.508c-3.327,0-6.427-2.102-7.547-5.433l-106.387-317.198
				c-1.395-4.166,0.847-8.677,5.017-10.076c4.166-1.387,8.677,0.847,10.076,5.017l106.387,317.198
				c1.395,4.166-0.847,8.677-5.017,10.076C1228.574,2906.372,1227.723,2906.508,1226.883,2906.508z"/>
			
				<linearGradient id="SVGID_00000122683115793932866860000002264690706064595115_" gradientUnits="userSpaceOnUse" x1="1857.3241" y1="2383.9644" x2="2151.0208" y2="2383.9644">
				<stop  offset="0" style="stop-color:#40447E"/>
				<stop  offset="0.9964" style="stop-color:#3C3B6B"/>
			</linearGradient>
			<path style="fill:url(#SVGID_00000122683115793932866860000002264690706064595115_);" d="M2135.123,2410.646
				c-0.439,0-0.878-0.015-1.325-0.054l-261.862-21.529c-8.759-0.719-15.28-8.405-14.557-17.168
				c0.719-8.763,8.413-15.292,17.168-14.557l261.862,21.529c8.759,0.719,15.28,8.405,14.557,17.168
				C2150.282,2404.351,2143.322,2410.646,2135.123,2410.646z"/>
			<g>
				<g>
					
						<linearGradient id="SVGID_00000119090390855438630950000011877754617444992140_" gradientUnits="userSpaceOnUse" x1="1342.4332" y1="3253.9924" x2="1359.2236" y2="3268.1118">
						<stop  offset="0" style="stop-color:#AA80F9"/>
						<stop  offset="0.9964" style="stop-color:#6165D7"/>
					</linearGradient>
					<path style="fill:url(#SVGID_00000119090390855438630950000011877754617444992140_);" d="M1405.566,3281.561
						c0,22.048-13.588,39.922-30.348,39.922c-16.762,0-30.349-17.874-30.349-39.922s13.587-39.922,30.349-39.922
						C1391.978,3241.638,1405.566,3259.512,1405.566,3281.561z"/>
					
						<linearGradient id="SVGID_00000069373353960253682810000000085699109757956031_" gradientUnits="userSpaceOnUse" x1="1353.3219" y1="3281.9368" x2="1414.0192" y2="3281.9368">
						<stop  offset="0" style="stop-color:#AA80F9"/>
						<stop  offset="0.9964" style="stop-color:#6165D7"/>
					</linearGradient>
					<path style="fill:url(#SVGID_00000069373353960253682810000000085699109757956031_);" d="M1414.019,3281.936
						c0,22.048-13.587,39.923-30.348,39.923c-16.761,0-30.349-17.875-30.349-39.923c0-22.048,13.588-39.922,30.349-39.922
						C1400.432,3242.014,1414.019,3259.888,1414.019,3281.936z"/>
					
						<linearGradient id="SVGID_00000144315350309960148770000000914410922838885533_" gradientUnits="userSpaceOnUse" x1="1370.9508" y1="3282.7405" x2="1396.3848" y2="3282.7405">
						<stop  offset="0" style="stop-color:#40447E"/>
						<stop  offset="0.9964" style="stop-color:#3C3B6B"/>
					</linearGradient>
					<path style="fill:url(#SVGID_00000144315350309960148770000000914410922838885533_);" d="M1396.385,3282.74
						c0,9.239-5.693,16.729-12.717,16.729c-7.023,0-12.717-7.49-12.717-16.729c0-9.238,5.694-16.728,12.717-16.728
						C1390.692,3266.012,1396.385,3273.502,1396.385,3282.74z"/>
				</g>
				<path style="fill:#BFC8D6;" d="M1375.217,3233.207v43.837c0,6.437,5.218,11.655,11.654,11.655l0,0
					c3.721,0,7.218-1.776,9.412-4.781l39.427-53.987L1375.217,3233.207z"/>
			</g>
			<g>
				<g>
					
						<linearGradient id="SVGID_00000168087100460440043370000014309473722957946528_" gradientUnits="userSpaceOnUse" x1="1623.7444" y1="3225.8303" x2="1640.5348" y2="3239.9497">
						<stop  offset="0" style="stop-color:#AA80F9"/>
						<stop  offset="0.9964" style="stop-color:#6165D7"/>
					</linearGradient>
					<path style="fill:url(#SVGID_00000168087100460440043370000014309473722957946528_);" d="M1686.876,3253.398
						c0,22.048-13.588,39.922-30.348,39.922c-16.761,0-30.349-17.874-30.349-39.922c0-22.049,13.588-39.922,30.349-39.922
						C1673.289,3213.476,1686.876,3231.349,1686.876,3253.398z"/>
					
						<linearGradient id="SVGID_00000081647011486130004150000005303554516663988143_" gradientUnits="userSpaceOnUse" x1="1634.6335" y1="3253.7744" x2="1695.3309" y2="3253.7744">
						<stop  offset="0" style="stop-color:#AA80F9"/>
						<stop  offset="0.9964" style="stop-color:#6165D7"/>
					</linearGradient>
					<path style="fill:url(#SVGID_00000081647011486130004150000005303554516663988143_);" d="M1695.331,3253.774
						c0,22.049-13.588,39.922-30.348,39.922s-30.349-17.873-30.349-39.922c0-22.048,13.588-39.922,30.349-39.922
						S1695.331,3231.726,1695.331,3253.774z"/>
					
						<linearGradient id="SVGID_00000051352040537311812990000003464546412047463344_" gradientUnits="userSpaceOnUse" x1="1652.2625" y1="3254.5776" x2="1677.6956" y2="3254.5776">
						<stop  offset="0" style="stop-color:#40447E"/>
						<stop  offset="0.9964" style="stop-color:#3C3B6B"/>
					</linearGradient>
					<path style="fill:url(#SVGID_00000051352040537311812990000003464546412047463344_);" d="M1677.696,3254.578
						c0,9.238-5.693,16.728-12.716,16.728c-7.023,0-12.717-7.49-12.717-16.728c0-9.239,5.694-16.729,12.717-16.729
						C1672.003,3237.849,1677.696,3245.339,1677.696,3254.578z"/>
				</g>
				<path style="fill:#BFC8D6;" d="M1656.528,3205.045v43.837c0,6.437,5.218,11.655,11.654,11.655l0,0
					c3.721,0,7.218-1.777,9.412-4.781l39.426-53.988L1656.528,3205.045z"/>
			</g>
			<path style="fill:#C9CED6;" d="M965.903,2596.576c-4.135,0-7.628-3.198-7.931-7.387c-0.315-4.384,2.984-8.196,7.368-8.51
				l685.3-49.329c0.641-0.031,1.279-0.016,1.908,0.093l283.705,48.323c4.333,0.738,7.247,4.85,6.509,9.183
				c-0.738,4.329-4.795,7.247-9.183,6.509l-282.757-48.163l-684.34,49.263C966.288,2596.568,966.094,2596.576,965.903,2596.576z"/>
			<path style="fill:#C9CED6;" d="M1846.276,2917.408c-0.404,0-0.808-0.031-1.22-0.093l-279.17-42.832l-424.728,40.881
				c-4.372,0.412-8.266-2.79-8.685-7.162c-0.42-4.375,2.786-8.261,7.162-8.685l425.715-40.974c0.649-0.062,1.321-0.047,1.97,0.058
				l280.153,42.983c4.345,0.664,7.325,4.729,6.657,9.074C1853.528,2914.591,1850.135,2917.408,1846.276,2917.408z"/>
			<g>
				
					<linearGradient id="SVGID_00000033342939034845168640000016988249528077140400_" gradientUnits="userSpaceOnUse" x1="1226.0106" y1="2412.4417" x2="1426.3832" y2="2403.73">
					<stop  offset="0" style="stop-color:#311944"/>
					<stop  offset="1" style="stop-color:#893976"/>
				</linearGradient>
				<path style="fill:url(#SVGID_00000033342939034845168640000016988249528077140400_);" d="M1562.865,2497.095
					c-2.776,0.613-5.422-1.783-5.809-4.499c-6.935-48.587-26.75-101.488-55.38-137.937c-25.623-32.622-45.386-46.769-82.761-53.252
					c-0.042-0.007-0.873-0.029-0.898-0.032c-78.471-8.346-82.798,174.681-82.141,199.974c1.063,40.927-2.204,9.116-5.334,12.562
					c-3.129,3.446-5.531,15.386-6.138-6.337c-1.616-57.815,4.159-211.65,92.741-218.213c0.031-0.002,0.551-0.007,0.603,0
					c42.061,5.669,64.638,21.425,93.181,57.499c29.931,37.828,50.385,92.163,57.051,142.72c0.381,2.897-1.469,6.623-4.559,7.387
					C1563.24,2497.011,1563.038,2497.056,1562.865,2497.095z"/>
				
					<linearGradient id="SVGID_00000122000043750316942750000012421229711701534602_" gradientUnits="userSpaceOnUse" x1="1183.6479" y1="2723.5632" x2="1400.9438" y2="2723.5632">
					<stop  offset="0" style="stop-color:#FF9085"/>
					<stop  offset="1" style="stop-color:#FB6FBB"/>
				</linearGradient>
				<path style="fill:url(#SVGID_00000122000043750316942750000012421229711701534602_);" d="M1200.298,2919.048
					c42.197,14.663,93.565,21.961,137.394,37.079c15.316-66.727,41.934-131.119,63.252-196.073
					c-41.115-89.572-76.084-181.939-122.331-269.054c-10.861,3.087-21.534,6.104-32.528,9.229
					c-4.435,145.615-33.694,259.512-61.918,398.572C1181.747,2910.719,1187.911,2914.743,1200.298,2919.048z"/>
				
					<linearGradient id="SVGID_00000159428538898170846230000006574668152272160933_" gradientUnits="userSpaceOnUse" x1="1255.6105" y1="2723.5532" x2="1400.9364" y2="2723.5532">
					<stop  offset="0" style="stop-color:#FF9085"/>
					<stop  offset="1" style="stop-color:#FB6FBB"/>
				</linearGradient>
				<path style="opacity:0.3;fill:url(#SVGID_00000159428538898170846230000006574668152272160933_);" d="M1400.936,2760.056
					c-41.098-89.586-76.08-181.922-122.324-269.07c-6.33,2.271-12.814,2.717-19.045,6.181c0.109,19.711,4.18,72.483,6.124,87.402
					c8.139,62.487,32.464,124.27,23.506,180.135c-7.329,45.708-33.652,58.476-33.587,99.791
					c0.071,44.543,37.328,69.345,73.146,88.916c3.4,0.843,6.002,1.726,9.059,2.711
					C1352.841,2889.411,1379.712,2824.997,1400.936,2760.056z"/>
				
					<linearGradient id="SVGID_00000147941244979320246070000005835295794845019810_" gradientUnits="userSpaceOnUse" x1="1501.7947" y1="2687.7737" x2="1814.9836" y2="3215.4495">
					<stop  offset="0" style="stop-color:#FF9085"/>
					<stop  offset="1" style="stop-color:#FB6FBB"/>
				</linearGradient>
				<path style="fill:url(#SVGID_00000147941244979320246070000005835295794845019810_);" d="M1278.613,2491
					c145.122,2.019,268.997-7.878,411.812-30.048c61.22,152.311,103.143,297.054,148.917,453.866
					c-160.528,6.465-343.87,15.805-501.531,41.302C1301.735,2809.098,1309.95,2641.966,1278.613,2491z"/>
				<g style="opacity:0.3;">
					
						<linearGradient id="SVGID_00000150786483535303148840000013681094579981703315_" gradientUnits="userSpaceOnUse" x1="1497.3966" y1="2637.8364" x2="1752.5804" y2="3237.1321">
						<stop  offset="0" style="stop-color:#FF9085"/>
						<stop  offset="1" style="stop-color:#FB6FBB"/>
					</linearGradient>
					<path style="fill:url(#SVGID_00000150786483535303148840000013681094579981703315_);" d="M1690.426,2460.96
						c-71.535,10.923-135.454,18.959-209.345,24.404c-11.473,0.845-8.559,18.384-8.024,30.99
						c3.136,73.766,141.063,71.009,162.453,158.617c15.972,65.421-51.01,141.642-100.594,170.583
						c-51.792,30.23-98.639,18.412-140.189,53.105c-18.128,15.136-24.362,32.101-31.782,53.622
						c151.469-21.693,322.875-31.341,476.402-37.465C1793.78,2757.896,1751.325,2613.337,1690.426,2460.96z"/>
				</g>
				
					<linearGradient id="SVGID_00000049191095345829238180000000027876152411316132_" gradientUnits="userSpaceOnUse" x1="1526.2112" y1="2229.1724" x2="1438.0181" y2="2981.9663">
					<stop  offset="0" style="stop-color:#311944"/>
					<stop  offset="1" style="stop-color:#893976"/>
				</linearGradient>
				<path style="fill:url(#SVGID_00000049191095345829238180000000027876152411316132_);" d="M1411.843,2523.274
					c-5.941-11.345,0.467,17.096-6.836-8.025c-13.815-47.522-35.402-130.437-7.26-185.515c8.151-15.954,26.963-30.581,44.638-35.199
					c91.09-23.799,153.689,126.828,173.884,186.222c6.802,20.008,1.045,11.126-3.527,7.761s5.665,33.104-9.221-9.229
					c-10.321-29.352-79.673-204.144-157.769-172.113c-14.254,5.846-29.272,18.646-37.177,28.763
					c-29.984,38.37,0.39,152.963,5.012,169.089c12.105,42.237-2.12,0.388-0.413,18.173
					C1413.416,2525.739,1412.834,2525.166,1411.843,2523.274z"/>
				
					<linearGradient id="SVGID_00000003094104799409266350000007800590424806772643_" gradientUnits="userSpaceOnUse" x1="1573.1671" y1="2218.0503" x2="1333.5081" y2="2673.9863">
					<stop  offset="0" style="stop-color:#311944"/>
					<stop  offset="1" style="stop-color:#893976"/>
				</linearGradient>
				<path style="fill:url(#SVGID_00000003094104799409266350000007800590424806772643_);" d="M1427.565,2523.421
					c0.675,8.857-5.304,16.547-14.312,17.145s-15.854-6.366-16.527-15.165c-0.674-8.799,5.132-16.497,14.136-17.004
					C1419.865,2507.89,1426.891,2514.564,1427.565,2523.421z"/>
				
					<linearGradient id="SVGID_00000020390554906496835900000007571830134106463653_" gradientUnits="userSpaceOnUse" x1="1739.4625" y1="2259.8025" x2="1481.3475" y2="2750.8496">
					<stop  offset="0" style="stop-color:#311944"/>
					<stop  offset="1" style="stop-color:#893976"/>
				</linearGradient>
				<path style="fill:url(#SVGID_00000020390554906496835900000007571830134106463653_);" d="M1630.275,2492.651
					c0.436,8.901-5.273,17.583-14.049,19.797c-8.775,2.214-15.524-4.331-16.007-13.103c-0.482-8.771,5.466-17.462,14.317-19.12
					C1623.387,2478.569,1629.839,2483.75,1630.275,2492.651z"/>
				<path style="fill:#D8DEE8;" d="M1743.444,2688.846c-43.734-41.051-92.166-80.24-139.734-116.96
					c-4.077-3.147-6.157-2.741-10.231-0.23c-20.531,12.655-44.979,26.086-65.255,38.248c-6.807,4.083-8.499,9.297-3.157,15.756
					c39.093,47.271,80.647,96.497,118.791,144.744c4.13,5.224,8.244,5.519,13.692,1.481c27.818-20.616,59.166-43.954,85.384-66.433
					C1749.092,2700.171,1749.47,2694.502,1743.444,2688.846z M1588.498,2618.159c-5.124,4.447-11.771,0.771-15.399-3.99
					c-3.627-4.763-5.571-12.322-0.585-16.894c4.987-4.573,11.639-0.959,15.257,3.797
					C1591.386,2605.826,1593.62,2613.712,1588.498,2618.159z"/>
				<path style="fill:#F4F7FA;" d="M1743.393,2687.072c-43.736-41.097-92.232-80.128-139.85-116.907
					c-4.081-3.151-6.102-2.673-10.179-0.169c-20.548,12.614-44.928,26.122-65.222,38.275c-6.812,4.08-8.526,9.25-3.18,15.715
					c39.123,47.313,80.694,96.51,118.881,144.792c4.135,5.228,8.237,5.507,13.685,1.463c27.821-20.651,59.149-44.047,85.351-66.581
					C1749.033,2698.367,1749.42,2692.735,1743.393,2687.072z M1588.382,2616.465c-5.117,4.444-11.766,0.791-15.387-3.966
					c-3.62-4.756-5.579-12.346-0.614-16.935c4.965-4.589,11.641-0.955,15.255,3.797
					C1591.25,2604.112,1593.501,2612.021,1588.382,2616.465z"/>
				<path style="fill:#26264F;" d="M1560.02,2590.432c-0.417,0.086-0.918-0.242-1.162-0.652
					c-5.072-8.523-11.369-17.782-19.282-23.506c-21.787-15.757-46.461-16.834-71.693-17.783
					c-25.231-0.948-45.906-2.616-64.104-20.476c-4.676-4.588-9.448-11.435-7.413-17.818c0.814-2.553,4.494-2.663,6.843-2.858
					c0.46-0.038,1.218,0.534,1.28,1.299c0.062,0.765-0.849,1.09-1.178,1.303c-1.247,0.806-4.764-0.928-4.817,1.833
					c-0.112,5.796,1.518,9.177,7.671,15.105c16.165,15.574,37.715,18.532,61.959,19.054c25.23,0.542,51.07,2.251,73.045,18.2
					c8.004,5.81,14.783,15.527,19.897,24.28c0.326,0.558-0.005,1.561-0.447,1.798
					C1560.176,2590.449,1560.437,2590.346,1560.02,2590.432z"/>
				<path style="fill:#26264F;" d="M1572.355,2609.38c-0.777,0.778-0.857,0.696-0.994-0.319c-0.135-1.015-1.725,1.366,0.366-2.507
					c2.09-3.873,8.946-12.307,6.213-21.53c-1.683-5.677-1.432-11.828-11.599-18.211c-21.782-13.673-55.881-22.836-82.987-30.859
					c-16.606-4.915-35.194-11.174-51.184-17.919c-3.626-1.529-5.749-2.404-9.124-3.625c-0.727-0.264-0.994-0.954-0.775-1.635
					c0.22-0.681,0.833-1.07,1.564-0.822c3.476,1.18,5.629,2.129,9.34,3.685c15.846,6.646,34.511,12.945,50.98,17.773
					c27.139,7.954,61.918,17.435,83.704,31.14c10.772,6.777,10.792,13.815,12.596,20.013c2.907,9.991-4.525,19.541-6.776,23.588
					C1571.426,2612.198,1573.131,2608.602,1572.355,2609.38z"/>
				<path style="fill:#FFFFFF;" d="M1743.397,2687.086c-43.787-41.25-92.188-79.927-139.856-117.035
					c-4.085-3.18-6.156-1.673-10.121-0.29c-1.786,0.623-3.922,2.679-5.752,3.543c2.122,5.868,5.605,12.751,8.978,17.547
					c17.451,24.823,51.408,25.86,61.457,51.512c8.855,22.602-12.798,39.253-13.732,66.29c-0.464,13.432,8.136,43.157,20.791,55.727
					c25.796-18.824,53.909-39.993,77.73-60.717C1749.032,2698.32,1749.43,2692.77,1743.397,2687.086z"/>
			</g>
			<path style="fill:#BFC8D6;" d="M1198.764,2667.274c-0.781,0-1.562-0.116-2.312-0.342l-232.853-70.698
				c-4.205-1.278-6.579-5.724-5.304-9.929c1.282-4.205,5.747-6.567,9.929-5.304l231.341,70.239l734.578-71.549
				c4.445-0.478,8.269,2.775,8.693,7.146c0.427,4.375-2.775,8.269-7.146,8.693l-736.152,71.705
				C1199.277,2667.262,1199.021,2667.274,1198.764,2667.274z"/>
			<path style="fill:#BFC8D6;" d="M1340.078,2965.536c-3.05,0-5.864-1.753-7.189-4.551l-141.318-298.262
				c-1.881-3.971-0.186-8.716,3.785-10.601c3.968-1.873,8.72-0.19,10.601,3.785l138.928,293.218l500.626-47.6
				c4.438-0.42,8.262,2.798,8.677,7.17c0.416,4.375-2.794,8.262-7.17,8.677l-506.182,48.128
				C1340.584,2965.525,1340.331,2965.536,1340.078,2965.536z"/>
			<path style="fill:#BFC8D6;" d="M1340.09,2965.536c-0.645,0-1.294-0.078-1.947-0.241l-199.686-50.137
				c-2.149-0.54-3.979-1.951-5.044-3.898l-174.485-318.823c-2.11-3.855-0.692-8.693,3.163-10.803
				c3.859-2.102,8.693-0.688,10.803,3.163l172.814,315.772l196.313,49.29c4.263,1.069,6.851,5.394,5.779,9.657
				C1346.895,2963.127,1343.65,2965.536,1340.09,2965.536z"/>
			<path style="fill:#BFC8D6;" d="M1250.164,2775.76c-0.758,0-1.512-0.109-2.238-0.323l-219.302-64.278
				c-4.216-1.236-6.633-5.658-5.398-9.874c1.232-4.216,5.677-6.637,9.874-5.398l217.865,63.855l647.571-56.475
				c4.453-0.439,8.238,2.86,8.619,7.236c0.385,4.38-2.856,8.238-7.236,8.619l-649.063,56.607
				C1250.627,2775.748,1250.394,2775.76,1250.164,2775.76z"/>
			<path style="fill:#BFC8D6;" d="M1303.744,2888.838c-0.723,0-1.445-0.097-2.145-0.295l-210.097-58.857
				c-4.236-1.185-6.703-5.576-5.518-9.808c1.185-4.236,5.576-6.711,9.808-5.518l208.701,58.465l562.324-49.193
				c4.368-0.462,8.238,2.856,8.619,7.236c0.385,4.376-2.856,8.238-7.236,8.619l-563.765,49.321
				C1304.207,2888.827,1303.974,2888.838,1303.744,2888.838z"/>
			<path style="fill:#BFC8D6;" d="M1443.442,2955.712c-3.427,0-6.594-2.234-7.624-5.689l-90.124-302.362
				c-1.255-4.212,1.142-8.646,5.355-9.902c4.197-1.259,8.642,1.139,9.901,5.355l90.124,302.362c1.255,4.212-1.143,8.646-5.355,9.902
				C1444.962,2955.604,1444.196,2955.712,1443.442,2955.712z"/>
			<path style="fill:#BFC8D6;" d="M1543.134,2946.231c-3.793,0-7.15-2.716-7.83-6.575l-54.054-306.333
				c-0.762-4.329,2.126-8.456,6.455-9.222c4.313-0.754,8.46,2.13,9.221,6.455l54.054,306.333c0.762,4.329-2.126,8.456-6.455,9.221
				C1544.058,2946.192,1543.592,2946.231,1543.134,2946.231z"/>
			<path style="fill:#BFC8D6;" d="M1655.571,2933.434c-4.193,0-7.702-3.276-7.939-7.512l-17.036-304.169
				c-0.245-4.391,3.113-8.149,7.5-8.394c4.418-0.171,8.149,3.113,8.394,7.5l17.036,304.169c0.245,4.391-3.113,8.149-7.5,8.394
				C1655.874,2933.43,1655.723,2933.434,1655.571,2933.434z"/>
			<path style="fill:#BFC8D6;" d="M1762.11,2921.508c-0.14,0-0.284-0.004-0.424-0.012c-4.391-0.229-7.76-3.975-7.531-8.363
				l16.208-309.022c0.229-4.387,3.933-7.756,8.363-7.531c4.391,0.229,7.76,3.975,7.531,8.363l-16.208,309.022
				C1769.827,2918.213,1766.314,2921.508,1762.11,2921.508z"/>
			<path style="fill:#BFC8D6;" d="M1279.694,2950.373c-2.961,0-5.806-1.659-7.177-4.508l-145.659-302.754
				c-1.908-3.96-0.241-8.716,3.719-10.621c3.956-1.9,8.72-0.237,10.624,3.719l145.659,302.754c1.908,3.96,0.241,8.716-3.719,10.624
				C1282.029,2950.121,1280.852,2950.373,1279.694,2950.373z"/>
			<path style="fill:#BFC8D6;" d="M1198.772,2930.053c-2.922,0-5.736-1.613-7.127-4.403l-154.62-309.726
				c-1.966-3.933-0.369-8.712,3.563-10.675c3.94-1.974,8.72-0.365,10.675,3.563l154.62,309.726
				c1.966,3.933,0.369,8.712-3.563,10.675C1201.177,2929.785,1199.965,2930.053,1198.772,2930.053z"/>
			<path style="fill:#BFC8D6;" d="M1373.692,3245.464c-1.002,0-1.997-0.191-2.934-0.56l-277.738-56.491
				c-4.088-1.624-6.085-6.249-4.465-10.333c1.62-4.088,6.253-6.086,10.333-4.465l275.853,55.745l347.494-42.451
				c24.734-3.019,44.992-20.499,51.614-44.522l190.488-691.545c8.693-31.562,36.47-54.357,69.12-56.724l101.071-7.329
				c4.337-0.253,8.196,2.977,8.514,7.364c0.315,4.384-2.98,8.196-7.364,8.514l-101.071,7.329
				c-25.947,1.877-48.019,19.99-54.929,45.073l-190.488,691.545c-8.339,30.268-33.863,52.286-65.028,56.094l-349.507,42.696
				C1374.337,3245.445,1374.015,3245.464,1373.692,3245.464z"/>
		</g>
	</g>
</g>
</svg>
